<svg xmlns="http://www.w3.org/2000/svg" id="mermaid-1576186027944" width="100%" height="100%" viewBox="-150 -10 2050 1748.188" style="max-width:2050px"><style>#mermaid-1576186027944 .actor{stroke:#ccf;fill:#ececff}#mermaid-1576186027944 text.actor{fill:#000;stroke:none}#mermaid-1576186027944 .actor-line{stroke:gray}#mermaid-1576186027944 .messageLine0,#mermaid-1576186027944 .messageLine1{stroke-width:1.5;stroke-dasharray:&apos;2 2&apos;;stroke:#333}#mermaid-1576186027944 #arrowhead,#mermaid-1576186027944 #sequencenumber{fill:#333}#mermaid-1576186027944 #crosshead path{fill:#333!important;stroke:#333!important}#mermaid-1576186027944 .messageText{fill:#333;stroke:none}#mermaid-1576186027944 .labelBox{stroke:#ccf;fill:#ececff}#mermaid-1576186027944 .labelText,#mermaid-1576186027944 .loopText{fill:#000;stroke:none}#mermaid-1576186027944 .loopLine{stroke-width:2;stroke-dasharray:&apos;2 2&apos;;stroke:#ccf}#mermaid-1576186027944 .note{stroke:#aa3;fill:#fff5ad}#mermaid-1576186027944 .noteText{fill:#000;stroke:none;font-family:&apos;trebuchet ms&apos;,verdana,arial;font-family:var(--mermaid-font-family);font-size:14px}#mermaid-1576186027944 .activation0{fill:#f4f4f4;stroke:#666}:root{--mermaid-font-family:&apos;&quot;trebuchet ms&quot;, verdana, arial&apos;;--mermaid-font-family:&quot;Comic Sans MS&quot;, &quot;Comic Sans&quot;, cursive;--mermaid-font-family:&quot;trebuchet ms&quot;, verdana, arial}</style><style>#mermaid-1576186027944{color:#000;font:16px &quot;trebuchet ms&quot;,verdana,arial}</style><g><line id="actor562" x1="75" x2="75" y1="5" y2="1737.188" stroke="#999" stroke-width=".5" class="actor-line"/><rect width="150" height="65" x="0" y="0" fill="#eaeaea" stroke="#666" class="actor" rx="3" ry="3"/><text x="75" y="32.5" alignment-baseline="central" class="actor" dominant-baseline="central" style="text-anchor:middle;font-size:14px"><tspan x="75" dy="0">Channel</tspan></text></g><g><line id="actor563" x1="275" x2="275" y1="5" y2="1737.188" stroke="#999" stroke-width=".5" class="actor-line"/><rect width="150" height="65" x="200" y="0" fill="#eaeaea" stroke="#666" class="actor" rx="3" ry="3"/><text x="275" y="32.5" alignment-baseline="central" class="actor" dominant-baseline="central" style="text-anchor:middle;font-size:14px"><tspan x="275" dy="0">Bot Framework Service</tspan></text></g><g><line id="actor564" x1="475" x2="475" y1="5" y2="1737.188" stroke="#999" stroke-width=".5" class="actor-line"/><rect width="150" height="65" x="400" y="0" fill="#eaeaea" stroke="#666" class="actor" rx="3" ry="3"/><text x="475" y="32.5" alignment-baseline="central" class="actor" dominant-baseline="central" style="text-anchor:middle;font-size:14px"><tspan x="475" dy="0">Web Server</tspan></text></g><g><line id="actor565" x1="675" x2="675" y1="5" y2="1737.188" stroke="#999" stroke-width=".5" class="actor-line"/><rect width="150" height="65" x="600" y="0" fill="#eaeaea" stroke="#666" class="actor" rx="3" ry="3"/><text x="675" y="32.5" alignment-baseline="central" class="actor" dominant-baseline="central" style="text-anchor:middle;font-size:14px"><tspan x="675" dy="0">Connector</tspan></text></g><g><line id="actor566" x1="875" x2="875" y1="5" y2="1737.188" stroke="#999" stroke-width=".5" class="actor-line"/><rect width="150" height="65" x="800" y="0" fill="#eaeaea" stroke="#666" class="actor" rx="3" ry="3"/><text x="875" y="32.5" alignment-baseline="central" class="actor" dominant-baseline="central" style="text-anchor:middle;font-size:14px"><tspan x="875" dy="0">Adapter</tspan></text></g><g><line id="actor567" x1="1075" x2="1075" y1="5" y2="1737.188" stroke="#999" stroke-width=".5" class="actor-line"/><rect width="150" height="65" x="1000" y="0" fill="#eaeaea" stroke="#666" class="actor" rx="3" ry="3"/><text x="1075" y="32.5" alignment-baseline="central" class="actor" dominant-baseline="central" style="text-anchor:middle;font-size:14px"><tspan x="1075" dy="0">Middleware</tspan></text></g><g><line id="actor568" x1="1275" x2="1275" y1="5" y2="1737.188" stroke="#999" stroke-width=".5" class="actor-line"/><rect width="150" height="65" x="1200" y="0" fill="#eaeaea" stroke="#666" class="actor" rx="3" ry="3"/><text x="1275" y="32.5" alignment-baseline="central" class="actor" dominant-baseline="central" style="text-anchor:middle;font-size:14px"><tspan x="1275" dy="0">TurnContext</tspan></text></g><g><line id="actor569" x1="1475" x2="1475" y1="5" y2="1737.188" stroke="#999" stroke-width=".5" class="actor-line"/><rect width="150" height="65" x="1400" y="0" fill="#eaeaea" stroke="#666" class="actor" rx="3" ry="3"/><text x="1475" y="32.5" alignment-baseline="central" class="actor" dominant-baseline="central" style="text-anchor:middle;font-size:14px"><tspan x="1475" dy="0">ActivityHandler</tspan></text></g><g><line id="actor570" x1="1675" x2="1675" y1="5" y2="1737.188" stroke="#999" stroke-width=".5" class="actor-line"/><rect width="150" height="65" x="1600" y="0" fill="#eaeaea" stroke="#666" class="actor" rx="3" ry="3"/><text x="1675" y="32.5" alignment-baseline="central" class="actor" dominant-baseline="central" style="text-anchor:middle;font-size:14px"><tspan x="1675" dy="0">Bot</tspan></text></g><defs><marker id="arrowhead" markerHeight="4" markerWidth="6" orient="auto" refX="5" refY="2"><path d="M 0,0 V 4 L6,2 Z"/></marker></defs><defs><marker id="crosshead" markerHeight="8" markerWidth="15" orient="auto" refX="16" refY="4"><path fill="#000" stroke="#000" stroke-width="1" d="M 9,2 V 6 L16,4 Z" style="stroke-dasharray:0,0"/><path fill="none" stroke="#000" stroke-width="1" d="M 0,1 L 6,7 M 6,1 L 0,7" style="stroke-dasharray:0,0"/></marker></defs><defs><marker id="sequencenumber" markerHeight="40" markerWidth="60" orient="auto" refX="15" refY="15"><circle cx="15" cy="15" r="6"/></marker></defs><g><rect width="150" height="36.016" x="400" y="75" fill="#EDF2AE" stroke="#666" class="note" rx="0" ry="0"/><text x="396" y="99" class="noteText"><tspan x="416">CSharp: ASP.NET</tspan></text></g><g><rect width="150" height="36.016" x="400" y="121.016" fill="#EDF2AE" stroke="#666" class="note" rx="0" ry="0"/><text x="396" y="145.016" class="noteText"><tspan x="416">JS: Restify or Express</tspan></text></g><g><rect width="150" height="36.016" x="-100" y="167.031" fill="#EDF2AE" stroke="#666" class="note" rx="0" ry="0"/><text x="-104" y="191.031" class="noteText"><tspan x="-84">User Message, &quot;Hi&quot;</tspan></text></g><g><rect width="150" height="36.016" x="-100" y="213.047" fill="#EDF2AE" stroke="#666" class="note" rx="0" ry="0"/><text x="-104" y="237.047" class="noteText"><tspan x="-84">Inbound Message</tspan></text></g><g><rect width="10" height="1401.125" x="70" y="251.063" fill="#EDF2AE" stroke="#666" class="activation0" rx="0" ry="0"/></g><g><text x="177.5" y="277.063" class="messageText" style="text-anchor:middle">HTTP POST</text><line x1="80" x2="275" y1="284.063" y2="284.063" stroke="#000" stroke-width="2" marker-end="url(#arrowhead)" class="messageLine0" style="fill:none"/></g><g><rect width="10" height="1366.125" x="270" y="286.063" fill="#EDF2AE" stroke="#666" class="activation0" rx="0" ry="0"/></g><g><rect width="150" height="36.016" x="100" y="294.063" fill="#EDF2AE" stroke="#666" class="note" rx="0" ry="0"/><text x="96" y="318.063" class="noteText"><tspan x="116">JSON payload of Activity</tspan></text></g><g><text x="377.5" y="358.078" class="messageText" style="text-anchor:middle">HTTP POST</text><line x1="280" x2="475" y1="365.078" y2="365.078" stroke="#000" stroke-width="2" marker-end="url(#arrowhead)" class="messageLine0" style="fill:none"/></g><g><rect width="10" height="1285.109" x="470" y="367.078" fill="#EDF2AE" stroke="#666" class="activation0" rx="0" ry="0"/></g><g><rect width="150" height="36.016" x="300" y="375.078" fill="#EDF2AE" stroke="#666" class="note" rx="0" ry="0"/><text x="296" y="399.078" class="noteText"><tspan x="316">JSON Payload of Activity</tspan></text></g><g><text x="677.5" y="439.094" class="messageText" style="text-anchor:middle">process() via POST</text><line x1="480" x2="875" y1="446.094" y2="446.094" stroke="#000" stroke-width="2" marker-end="url(#arrowhead)" class="messageLine0" style="fill:none"/></g><g><rect width="10" height="1204.094" x="870" y="448.094" fill="#EDF2AE" stroke="#666" class="activation0" rx="0" ry="0"/></g><g><rect width="150" height="36.016" x="900" y="456.094" fill="#EDF2AE" stroke="#666" class="note" rx="0" ry="0"/><text x="896" y="480.094" class="noteText"><tspan x="916">Deserialize Activity</tspan></text></g><g><rect width="150" height="36.016" x="900" y="502.109" fill="#EDF2AE" stroke="#666" class="note" rx="0" ry="0"/><text x="896" y="526.109" class="noteText"><tspan x="916">Create TurnContext</tspan></text></g><g><rect width="150" height="36.016" x="900" y="548.125" fill="#EDF2AE" stroke="#666" class="note" rx="0" ry="0"/><text x="896" y="572.125" class="noteText"><tspan x="916">Call Middleware</tspan></text></g><g><text x="977.5" y="612.141" class="messageText" style="text-anchor:middle">run middleware pipeline</text><line x1="880" x2="1075" y1="619.141" y2="619.141" stroke="#000" stroke-width="2" marker-end="url(#arrowhead)" class="messageLine0" style="fill:none"/></g><g><rect width="10" height="1031.047" x="1070" y="621.141" fill="#EDF2AE" stroke="#666" class="activation0" rx="0" ry="0"/></g><g><text x="1080" y="672.141" class="messageText" style="text-anchor:middle">call next Middleware</text><path stroke="#000" stroke-width="2" marker-end="url(#arrowhead)" d="M 1080,679.140625 C 1140,669.140625 1140,709.140625 1080,699.140625" class="messageLine0" style="fill:none"/></g><g><line x1="970" x2="1190" y1="629.141" y2="629.141" class="loopLine"/><line x1="1190" x2="1190" y1="629.141" y2="719.141" class="loopLine"/><line x1="970" x2="1190" y1="719.141" y2="719.141" class="loopLine"/><line x1="970" x2="970" y1="629.141" y2="719.141" class="loopLine"/><polygon points="970 629.141 1020 629.141 1020 642.141 1011.6 649.141 970 649.141" class="labelBox"/><text x="977.5" y="644.141" class="labelText"><tspan x="977.5">loop</tspan></text><text x="1080" y="644.141" class="loopText" style="text-anchor:middle"><tspan x="1080">[ Uncalled Middleware ]</tspan></text></g><g><text x="1277.5" y="747.141" class="messageText" style="text-anchor:middle">onTurn()</text><line x1="1080" x2="1475" y1="754.141" y2="754.141" stroke="#000" stroke-width="2" marker-end="url(#arrowhead)" class="messageLine0" style="fill:none"/></g><g><rect width="10" height="896.047" x="1470" y="756.141" fill="#EDF2AE" stroke="#666" class="activation0" rx="0" ry="0"/></g><g><rect width="450" height="36.016" x="1050" y="764.141" fill="#EDF2AE" stroke="#666" class="note" rx="0" ry="0"/><text x="1046" y="788.141" class="noteText"><tspan x="1066">Call Bot&apos;s Turn Handler</tspan></text></g><g><text x="1577.5" y="853.156" class="messageText" style="text-anchor:middle">onMessage()</text><line x1="1480" x2="1675" y1="860.156" y2="860.156" stroke="#000" stroke-width="2" marker-end="url(#arrowhead)" class="messageLine0" style="fill:none"/></g><g><rect width="10" height="790.031" x="1670" y="862.156" fill="#EDF2AE" stroke="#666" class="activation0" rx="0" ry="0"/></g><g><text x="1575" y="908.156" class="messageText" style="text-anchor:middle">onConversationUpdateActivity()</text><line x1="1480" x2="1670" y1="915.156" y2="915.156" stroke="#000" stroke-width="2" marker-end="url(#arrowhead)" class="messageLine0" style="fill:none"/></g><g><text x="1575" y="963.156" class="messageText" style="text-anchor:middle">onMessageReactionActivity()</text><line x1="1480" x2="1670" y1="970.156" y2="970.156" stroke="#000" stroke-width="2" marker-end="url(#arrowhead)" class="messageLine0" style="fill:none"/></g><g><text x="1575" y="1018.156" class="messageText" style="text-anchor:middle">onEventActivity()</text><line x1="1480" x2="1670" y1="1025.156" y2="1025.156" stroke="#000" stroke-width="2" marker-end="url(#arrowhead)" class="messageLine0" style="fill:none"/></g><g><text x="1575" y="1073.156" class="messageText" style="text-anchor:middle">onUnrecognizedActivityType()</text><line x1="1480" x2="1670" y1="1080.156" y2="1080.156" stroke="#000" stroke-width="2" marker-end="url(#arrowhead)" class="messageLine0" style="fill:none"/></g><g><line x1="1460" x2="1690" y1="810.156" y2="810.156" class="loopLine"/><line x1="1690" x2="1690" y1="810.156" y2="1090.156" class="loopLine"/><line x1="1460" x2="1690" y1="1090.156" y2="1090.156" class="loopLine"/><line x1="1460" x2="1460" y1="810.156" y2="1090.156" class="loopLine"/><line x1="1460" x2="1690" y1="870.156" y2="870.156" class="loopLine" style="stroke-dasharray:3,3"/><line x1="1460" x2="1690" y1="925.156" y2="925.156" class="loopLine" style="stroke-dasharray:3,3"/><line x1="1460" x2="1690" y1="980.156" y2="980.156" class="loopLine" style="stroke-dasharray:3,3"/><line x1="1460" x2="1690" y1="1035.156" y2="1035.156" class="loopLine" style="stroke-dasharray:3,3"/><polygon points="1460 810.156 1510 810.156 1510 823.156 1501.6 830.156 1460 830.156" class="labelBox"/><text x="1467.5" y="825.156" class="labelText"><tspan x="1467.5">alt</tspan></text><text x="1575" y="825.156" class="loopText" style="text-anchor:middle"><tspan x="1575">[ is Message ]</tspan></text><text x="1575" y="885.156" class="loopText" style="text-anchor:middle"><tspan x="1575">[ is ConversationUpdate ]</tspan></text><text x="1575" y="940.156" class="loopText" style="text-anchor:middle"><tspan x="1575">[ is MessageReaction ]</tspan></text><text x="1575" y="995.156" class="loopText" style="text-anchor:middle"><tspan x="1575">[ is Event ]</tspan></text><text x="1575" y="1050.156" class="loopText" style="text-anchor:middle"><tspan x="1575">[ is Unreognized Activity Type ]</tspan></text></g><g><rect width="150" height="36.016" x="1700" y="1100.156" fill="#EDF2AE" stroke="#666" class="note" rx="0" ry="0"/><text x="1696" y="1124.156" class="noteText"><tspan x="1716">Bot Message &quot;Echo: Hi&quot;</tspan></text></g><g><rect width="150" height="36.016" x="1700" y="1146.172" fill="#EDF2AE" stroke="#666" class="note" rx="0" ry="0"/><text x="1696" y="1170.172" class="noteText"><tspan x="1716">Outbound Message</tspan></text></g><g><text x="1472.5" y="1210.188" class="messageText" style="text-anchor:middle">sendActivity()</text><line x1="1670" x2="1275" y1="1217.188" y2="1217.188" stroke="#000" stroke-width="2" marker-end="url(#arrowhead)" class="messageLine0" style="fill:none"/></g><g><rect width="10" height="433" x="1270" y="1219.188" fill="#EDF2AE" stroke="#666" class="activation0" rx="0" ry="0"/></g><g><text x="1175" y="1245.188" class="messageText" style="text-anchor:middle">Send Activities Through Callback Pipeline</text><line x1="1270" x2="1080" y1="1252.188" y2="1252.188" stroke="#000" stroke-width="2" marker-end="url(#arrowhead)" class="messageLine0" style="fill:none"/></g><g><text x="1080" y="1305.188" class="messageText" style="text-anchor:middle">Call Middleware registered on Send Activities</text><path stroke="#000" stroke-width="2" marker-end="url(#arrowhead)" d="M 1080,1312.1875 C 1140,1302.1875 1140,1342.1875 1080,1332.1875" class="messageLine0" style="fill:none"/></g><g><line x1="907.453" x2="1252.547" y1="1262.188" y2="1262.188" class="loopLine"/><line x1="1252.547" x2="1252.547" y1="1262.188" y2="1352.188" class="loopLine"/><line x1="907.453" x2="1252.547" y1="1352.188" y2="1352.188" class="loopLine"/><line x1="907.453" x2="907.453" y1="1262.188" y2="1352.188" class="loopLine"/><polygon points="907.453 1262.188 957.453 1262.188 957.453 1275.188 949.053 1282.188 907.453 1282.188" class="labelBox"/><text x="914.953" y="1277.188" class="labelText"><tspan x="914.953">loop</tspan></text><text x="1080" y="1277.188" class="loopText" style="text-anchor:middle"><tspan x="1080">[ Uncalled Middleware ]</tspan></text></g><g><text x="975" y="1380.188" class="messageText" style="text-anchor:middle">sendActivities():</text><line x1="1070" x2="880" y1="1387.188" y2="1387.188" stroke="#000" stroke-width="2" marker-end="url(#arrowhead)" class="messageLine0" style="fill:none"/></g><g><text x="772.5" y="1440.188" class="messageText" style="text-anchor:middle">replyToActivity()</text><line x1="870" x2="675" y1="1447.188" y2="1447.188" stroke="#000" stroke-width="2" marker-end="url(#arrowhead)" class="messageLine0" style="fill:none"/></g><g><rect width="10" height="203" x="670" y="1449.188" fill="#EDF2AE" stroke="#666" class="activation0" rx="0" ry="0"/></g><g><text x="775" y="1495.188" class="messageText" style="text-anchor:middle">sendToConversation()</text><line x1="870" x2="680" y1="1502.188" y2="1502.188" stroke="#000" stroke-width="2" marker-end="url(#arrowhead)" class="messageLine0" style="fill:none"/></g><g><line x1="660" x2="890" y1="1397.188" y2="1397.188" class="loopLine"/><line x1="890" x2="890" y1="1397.188" y2="1512.188" class="loopLine"/><line x1="660" x2="890" y1="1512.188" y2="1512.188" class="loopLine"/><line x1="660" x2="660" y1="1397.188" y2="1512.188" class="loopLine"/><line x1="660" x2="890" y1="1457.188" y2="1457.188" class="loopLine" style="stroke-dasharray:3,3"/><polygon points="660 1397.188 710 1397.188 710 1410.188 701.6 1417.188 660 1417.188" class="labelBox"/><text x="667.5" y="1412.188" class="labelText"><tspan x="667.5">alt</tspan></text><text x="775" y="1412.188" class="loopText" style="text-anchor:middle"><tspan x="775">[ has replyToId ]</tspan></text><text x="775" y="1472.188" class="loopText" style="text-anchor:middle"><tspan x="775">[ no replyToId ]</tspan></text></g><g><text x="475" y="1540.188" class="messageText" style="text-anchor:middle">Reply to Activity With Http Messages</text><line x1="670" x2="280" y1="1547.188" y2="1547.188" stroke="#000" stroke-width="2" marker-end="url(#arrowhead)" class="messageLine0" style="fill:none"/></g><g><text x="175" y="1575.188" class="messageText" style="text-anchor:middle">HTTP POST</text><line x1="270" x2="80" y1="1582.188" y2="1582.188" stroke="#000" stroke-width="2" marker-end="url(#arrowhead)" class="messageLine0" style="fill:none"/></g><g><text x="875" y="1610.188" class="messageText" style="text-anchor:middle">200 OK to Outbound Message</text><line x1="80" x2="1670" y1="1617.188" y2="1617.188" stroke="#000" stroke-width="2" marker-end="url(#arrowhead)" class="messageLine1" style="stroke-dasharray:3,3;fill:none"/></g><g><text x="875" y="1645.188" class="messageText" style="text-anchor:middle">200 OK to Inbound Message</text><line x1="1670" x2="80" y1="1652.188" y2="1652.188" stroke="#000" stroke-width="2" marker-end="url(#arrowhead)" class="messageLine1" style="stroke-dasharray:3,3;fill:none"/></g><g><rect width="150" height="65" x="0" y="1672.188" fill="#eaeaea" stroke="#666" class="actor" rx="3" ry="3"/><text x="75" y="1704.688" alignment-baseline="central" class="actor" dominant-baseline="central" style="text-anchor:middle;font-size:14px"><tspan x="75" dy="0">Channel</tspan></text></g><g><rect width="150" height="65" x="200" y="1672.188" fill="#eaeaea" stroke="#666" class="actor" rx="3" ry="3"/><text x="275" y="1704.688" alignment-baseline="central" class="actor" dominant-baseline="central" style="text-anchor:middle;font-size:14px"><tspan x="275" dy="0">Bot Framework Service</tspan></text></g><g><rect width="150" height="65" x="400" y="1672.188" fill="#eaeaea" stroke="#666" class="actor" rx="3" ry="3"/><text x="475" y="1704.688" alignment-baseline="central" class="actor" dominant-baseline="central" style="text-anchor:middle;font-size:14px"><tspan x="475" dy="0">Web Server</tspan></text></g><g><rect width="150" height="65" x="600" y="1672.188" fill="#eaeaea" stroke="#666" class="actor" rx="3" ry="3"/><text x="675" y="1704.688" alignment-baseline="central" class="actor" dominant-baseline="central" style="text-anchor:middle;font-size:14px"><tspan x="675" dy="0">Connector</tspan></text></g><g><rect width="150" height="65" x="800" y="1672.188" fill="#eaeaea" stroke="#666" class="actor" rx="3" ry="3"/><text x="875" y="1704.688" alignment-baseline="central" class="actor" dominant-baseline="central" style="text-anchor:middle;font-size:14px"><tspan x="875" dy="0">Adapter</tspan></text></g><g><rect width="150" height="65" x="1000" y="1672.188" fill="#eaeaea" stroke="#666" class="actor" rx="3" ry="3"/><text x="1075" y="1704.688" alignment-baseline="central" class="actor" dominant-baseline="central" style="text-anchor:middle;font-size:14px"><tspan x="1075" dy="0">Middleware</tspan></text></g><g><rect width="150" height="65" x="1200" y="1672.188" fill="#eaeaea" stroke="#666" class="actor" rx="3" ry="3"/><text x="1275" y="1704.688" alignment-baseline="central" class="actor" dominant-baseline="central" style="text-anchor:middle;font-size:14px"><tspan x="1275" dy="0">TurnContext</tspan></text></g><g><rect width="150" height="65" x="1400" y="1672.188" fill="#eaeaea" stroke="#666" class="actor" rx="3" ry="3"/><text x="1475" y="1704.688" alignment-baseline="central" class="actor" dominant-baseline="central" style="text-anchor:middle;font-size:14px"><tspan x="1475" dy="0">ActivityHandler</tspan></text></g><g><rect width="150" height="65" x="1600" y="1672.188" fill="#eaeaea" stroke="#666" class="actor" rx="3" ry="3"/><text x="1675" y="1704.688" alignment-baseline="central" class="actor" dominant-baseline="central" style="text-anchor:middle;font-size:14px"><tspan x="1675" dy="0">Bot</tspan></text></g></svg>