<svg xmlns="http://www.w3.org/2000/svg" id="mermaid-1580511898827" width="100%" height="100%" viewBox="-50 -10 650 546" style="max-width:650px"><style>#mermaid-1580511898827 .actor{stroke:#ccf;fill:#ececff}#mermaid-1580511898827 text.actor{fill:#000;stroke:none}#mermaid-1580511898827 .actor-line{stroke:gray}#mermaid-1580511898827 .messageLine0,#mermaid-1580511898827 .messageLine1{stroke-width:1.5;stroke-dasharray:&apos;2 2&apos;;stroke:#333}#mermaid-1580511898827 #arrowhead,#mermaid-1580511898827 #sequencenumber{fill:#333}#mermaid-1580511898827 #crosshead path{fill:#333!important;stroke:#333!important}#mermaid-1580511898827 .messageText{fill:#333;stroke:none}#mermaid-1580511898827 .labelBox{stroke:#ccf;fill:#ececff}#mermaid-1580511898827 .labelText,#mermaid-1580511898827 .loopText{fill:#000;stroke:none}#mermaid-1580511898827 .loopLine{stroke-width:2;stroke-dasharray:&apos;2 2&apos;;stroke:#ccf}#mermaid-1580511898827 .activation0,#mermaid-1580511898827 .activation1{fill:#f4f4f4;stroke:#666}:root{--mermaid-font-family:&apos;&quot;trebuchet ms&quot;, verdana, arial&apos;;--mermaid-font-family:&quot;Comic Sans MS&quot;, &quot;Comic Sans&quot;, cursive;--mermaid-font-family:&quot;trebuchet ms&quot;, verdana, arial}</style><style>#mermaid-1580511898827{color:#000;font:16px &quot;trebuchet ms&quot;,verdana,arial}</style><g><line id="actor28" x1="75" x2="75" y1="5" y2="535" stroke="#999" stroke-width=".5" class="actor-line"/><rect width="150" height="65" x="0" y="0" fill="#eaeaea" stroke="#666" class="actor" rx="3" ry="3"/><text x="75" y="32.5" alignment-baseline="central" class="actor" dominant-baseline="central" style="text-anchor:middle;font-size:14px"><tspan x="75" dy="0">Alexa</tspan></text></g><g><line id="actor29" x1="275" x2="275" y1="5" y2="535" stroke="#999" stroke-width=".5" class="actor-line"/><rect width="150" height="65" x="200" y="0" fill="#eaeaea" stroke="#666" class="actor" rx="3" ry="3"/><text x="275" y="32.5" alignment-baseline="central" class="actor" dominant-baseline="central" style="text-anchor:middle;font-size:14px"><tspan x="275" dy="0">BF SDK</tspan></text></g><g><line id="actor30" x1="475" x2="475" y1="5" y2="535" stroke="#999" stroke-width=".5" class="actor-line"/><rect width="150" height="65" x="400" y="0" fill="#eaeaea" stroke="#666" class="actor" rx="3" ry="3"/><text x="475" y="32.5" alignment-baseline="central" class="actor" dominant-baseline="central" style="text-anchor:middle;font-size:14px"><tspan x="475" dy="0">Bot</tspan></text></g><defs><marker id="arrowhead" markerHeight="4" markerWidth="6" orient="auto" refX="5" refY="2"><path d="M 0,0 V 4 L6,2 Z"/></marker></defs><defs><marker id="crosshead" markerHeight="8" markerWidth="15" orient="auto" refX="16" refY="4"><path fill="#000" stroke="#000" stroke-width="1" d="M 9,2 V 6 L16,4 Z" style="stroke-dasharray:0,0"/><path fill="none" stroke="#000" stroke-width="1" d="M 0,1 L 6,7 M 6,1 L 0,7" style="stroke-dasharray:0,0"/></marker></defs><defs><marker id="sequencenumber" markerHeight="40" markerWidth="60" orient="auto" refX="15" refY="15"><circle cx="15" cy="15" r="6"/></marker></defs><g><text x="175" y="93" class="messageText" style="text-anchor:middle">HTTP Req. 1</text><line x1="75" x2="275" y1="100" y2="100" stroke="#000" stroke-width="2" marker-end="url(#arrowhead)" class="messageLine0" style="fill:none"/></g><g><rect width="10" height="348" x="70" y="102" fill="#EDF2AE" stroke="#666" class="activation0" rx="0" ry="0"/></g><g><rect width="10" height="348" x="270" y="102" fill="#EDF2AE" stroke="#666" class="activation0" rx="0" ry="0"/></g><g><text x="377.5" y="128" class="messageText" style="text-anchor:middle">process()</text><line x1="280" x2="475" y1="135" y2="135" stroke="#000" stroke-width="2" marker-end="url(#arrowhead)" class="messageLine0" style="fill:none"/></g><g><rect width="10" height="278" x="470" y="137" fill="#EDF2AE" stroke="#666" class="activation0" rx="0" ry="0"/></g><g><line x1="470" x2="280" y1="195" y2="195" stroke="#000" stroke-width="2" marker-end="url(#arrowhead)" class="messageLine0" style="fill:none"/></g><g><rect width="10" height="33" x="475" y="197" fill="#EDF2AE" stroke="#666" class="activation1" rx="0" ry="0"/></g><g><rect width="10" height="33" x="275" y="197" fill="#EDF2AE" stroke="#666" class="activation1" rx="0" ry="0"/></g><g><line x1="285" x2="470" y1="230" y2="230" stroke="#000" stroke-width="2" marker-end="url(#arrowhead)" class="messageLine1" style="stroke-dasharray:3,3;fill:none"/></g><g><line x1="470" x2="280" y1="265" y2="265" stroke="#000" stroke-width="2" marker-end="url(#arrowhead)" class="messageLine0" style="fill:none"/></g><g><rect width="10" height="33" x="475" y="267" fill="#EDF2AE" stroke="#666" class="activation1" rx="0" ry="0"/></g><g><rect width="10" height="33" x="275" y="267" fill="#EDF2AE" stroke="#666" class="activation1" rx="0" ry="0"/></g><g><line x1="285" x2="470" y1="300" y2="300" stroke="#000" stroke-width="2" marker-end="url(#arrowhead)" class="messageLine1" style="stroke-dasharray:3,3;fill:none"/></g><g><line x1="470" x2="280" y1="335" y2="335" stroke="#000" stroke-width="2" marker-end="url(#arrowhead)" class="messageLine0" style="fill:none"/></g><g><rect width="10" height="33" x="475" y="337" fill="#EDF2AE" stroke="#666" class="activation1" rx="0" ry="0"/></g><g><rect width="10" height="33" x="275" y="337" fill="#EDF2AE" stroke="#666" class="activation1" rx="0" ry="0"/></g><g><line x1="285" x2="470" y1="370" y2="370" stroke="#000" stroke-width="2" marker-end="url(#arrowhead)" class="messageLine1" style="stroke-dasharray:3,3;fill:none"/></g><g><line x1="260" x2="495" y1="145" y2="145" class="loopLine"/><line x1="495" x2="495" y1="145" y2="380" class="loopLine"/><line x1="260" x2="495" y1="380" y2="380" class="loopLine"/><line x1="260" x2="260" y1="145" y2="380" class="loopLine"/><polygon points="260 145 310 145 310 158 301.6 165 260 165" class="labelBox"/><text x="267.5" y="160" class="labelText"><tspan x="267.5">opt</tspan></text><text x="377.5" y="160" class="loopText" style="text-anchor:middle"><tspan x="377.5">[ Buffer until X occurs ]</tspan></text></g><g><text x="375" y="408" class="messageText" style="text-anchor:middle">X</text><line x1="470" x2="280" y1="415" y2="415" stroke="#000" stroke-width="2" marker-end="url(#arrowhead)" class="messageLine0" style="fill:none"/></g><g><text x="175" y="443" class="messageText" style="text-anchor:middle">Reply to Req. 1</text><line x1="270" x2="80" y1="450" y2="450" stroke="#000" stroke-width="2" marker-end="url(#arrowhead)" class="messageLine1" style="stroke-dasharray:3,3;fill:none"/></g><g><rect width="150" height="65" x="0" y="470" fill="#eaeaea" stroke="#666" class="actor" rx="3" ry="3"/><text x="75" y="502.5" alignment-baseline="central" class="actor" dominant-baseline="central" style="text-anchor:middle;font-size:14px"><tspan x="75" dy="0">Alexa</tspan></text></g><g><rect width="150" height="65" x="200" y="470" fill="#eaeaea" stroke="#666" class="actor" rx="3" ry="3"/><text x="275" y="502.5" alignment-baseline="central" class="actor" dominant-baseline="central" style="text-anchor:middle;font-size:14px"><tspan x="275" dy="0">BF SDK</tspan></text></g><g><rect width="150" height="65" x="400" y="470" fill="#eaeaea" stroke="#666" class="actor" rx="3" ry="3"/><text x="475" y="502.5" alignment-baseline="central" class="actor" dominant-baseline="central" style="text-anchor:middle;font-size:14px"><tspan x="475" dy="0">Bot</tspan></text></g></svg>