<svg xmlns="http://www.w3.org/2000/svg" id="mermaid-1580502318353" width="100%" height="100%" viewBox="-60 -10 460 638.031" style="max-width:460px"><style>#mermaid-1580502318353 .actor{stroke:#ccf;fill:#ececff}#mermaid-1580502318353 text.actor{fill:#000;stroke:none}#mermaid-1580502318353 .actor-line{stroke:gray}#mermaid-1580502318353 .messageLine0,#mermaid-1580502318353 .messageLine1{stroke-width:1.5;stroke-dasharray:&apos;2 2&apos;;stroke:#333}#mermaid-1580502318353 #arrowhead,#mermaid-1580502318353 #sequencenumber{fill:#333}#mermaid-1580502318353 #crosshead path{fill:#333!important;stroke:#333!important}#mermaid-1580502318353 .messageText{fill:#333;stroke:none}#mermaid-1580502318353 .labelBox{stroke:#ccf;fill:#ececff}#mermaid-1580502318353 .labelText,#mermaid-1580502318353 .loopText{fill:#000;stroke:none}#mermaid-1580502318353 .loopLine{stroke-width:2;stroke-dasharray:&apos;2 2&apos;;stroke:#ccf}#mermaid-1580502318353 .note{stroke:#aa3;fill:#fff5ad}#mermaid-1580502318353 .noteText{fill:#000;stroke:none;font-family:&apos;trebuchet ms&apos;,verdana,arial;font-family:var(--mermaid-font-family);font-size:14px}#mermaid-1580502318353 .activation0,#mermaid-1580502318353 .activation1{fill:#f4f4f4;stroke:#666}:root{--mermaid-font-family:&apos;&quot;trebuchet ms&quot;, verdana, arial&apos;;--mermaid-font-family:&quot;Comic Sans MS&quot;, &quot;Comic Sans&quot;, cursive;--mermaid-font-family:&quot;trebuchet ms&quot;, verdana, arial}</style><style>#mermaid-1580502318353{color:#000;font:16px &quot;trebuchet ms&quot;,verdana,arial}</style><g><line id="actor24" x1="75" x2="75" y1="5" y2="627.031" stroke="#999" stroke-width=".5" class="actor-line"/><rect width="150" height="65" x="0" y="0" fill="#eaeaea" stroke="#666" class="actor" rx="3" ry="3"/><text x="75" y="32.5" alignment-baseline="central" class="actor" dominant-baseline="central" style="text-anchor:middle;font-size:14px"><tspan x="75" dy="0">Bot Framework Service</tspan></text></g><g><line id="actor25" x1="275" x2="275" y1="5" y2="627.031" stroke="#999" stroke-width=".5" class="actor-line"/><rect width="150" height="65" x="200" y="0" fill="#eaeaea" stroke="#666" class="actor" rx="3" ry="3"/><text x="275" y="32.5" alignment-baseline="central" class="actor" dominant-baseline="central" style="text-anchor:middle;font-size:14px"><tspan x="275" dy="0">Bot</tspan></text></g><defs><marker id="arrowhead" markerHeight="4" markerWidth="6" orient="auto" refX="5" refY="2"><path d="M 0,0 V 4 L6,2 Z"/></marker></defs><defs><marker id="crosshead" markerHeight="8" markerWidth="15" orient="auto" refX="16" refY="4"><path fill="#000" stroke="#000" stroke-width="1" d="M 9,2 V 6 L16,4 Z" style="stroke-dasharray:0,0"/><path fill="none" stroke="#000" stroke-width="1" d="M 0,1 L 6,7 M 6,1 L 0,7" style="stroke-dasharray:0,0"/></marker></defs><defs><marker id="sequencenumber" markerHeight="40" markerWidth="60" orient="auto" refX="15" refY="15"><circle cx="15" cy="15" r="6"/></marker></defs><g><rect width="150" height="36.016" x="200" y="75" fill="#EDF2AE" stroke="#666" class="note" rx="0" ry="0"/><text x="196" y="99" class="noteText"><tspan x="216">&quot;api/messages&quot;</tspan></text></g><g><text x="175" y="139.016" class="messageText" style="text-anchor:middle">HTTP POST Message &quot;hi&quot; (Req. 1)</text><line x1="75" x2="275" y1="146.016" y2="146.016" stroke="#000" stroke-width="2" marker-end="url(#arrowhead)" class="messageLine0" style="fill:none"/></g><g><rect width="10" height="394.016" x="70" y="148.016" fill="#EDF2AE" stroke="#666" class="activation0" rx="0" ry="0"/></g><g><rect width="10" height="394.016" x="270" y="148.016" fill="#EDF2AE" stroke="#666" class="activation0" rx="0" ry="0"/></g><g><rect width="150" height="36.016" x="0" y="181.016" fill="#EDF2AE" stroke="#666" class="note" rx="0" ry="0"/><text x="-4" y="205.016" class="noteText"><tspan x="16">ReplyToActivity (2)</tspan></text></g><g><text x="175" y="245.031" class="messageText" style="text-anchor:middle">HTTP POST w/Bot&apos;s reply</text><line x1="270" x2="80" y1="252.031" y2="252.031" stroke="#000" stroke-width="2" marker-end="url(#arrowhead)" class="messageLine0" style="fill:none"/></g><g><rect width="10" height="33" x="275" y="254.031" fill="#EDF2AE" stroke="#666" class="activation1" rx="0" ry="0"/></g><g><rect width="10" height="33" x="75" y="254.031" fill="#EDF2AE" stroke="#666" class="activation1" rx="0" ry="0"/></g><g><text x="177.5" y="280.031" class="messageText" style="text-anchor:middle">{ activityId } (3)</text><line x1="85" x2="270" y1="287.031" y2="287.031" stroke="#000" stroke-width="2" marker-end="url(#arrowhead)" class="messageLine1" style="stroke-dasharray:3,3;fill:none"/></g><g><text x="175" y="315.031" class="messageText" style="text-anchor:middle">HTTP</text><line x1="270" x2="80" y1="322.031" y2="322.031" stroke="#000" stroke-width="2" marker-end="url(#arrowhead)" class="messageLine0" style="fill:none"/></g><g><rect width="10" height="33" x="275" y="324.031" fill="#EDF2AE" stroke="#666" class="activation1" rx="0" ry="0"/></g><g><rect width="10" height="33" x="75" y="324.031" fill="#EDF2AE" stroke="#666" class="activation1" rx="0" ry="0"/></g><g><text x="177.5" y="350.031" class="messageText" style="text-anchor:middle">{ activityId }</text><line x1="85" x2="270" y1="357.031" y2="357.031" stroke="#000" stroke-width="2" marker-end="url(#arrowhead)" class="messageLine1" style="stroke-dasharray:3,3;fill:none"/></g><g><text x="175" y="385.031" class="messageText" style="text-anchor:middle">HTTP</text><line x1="270" x2="80" y1="392.031" y2="392.031" stroke="#000" stroke-width="2" marker-end="url(#arrowhead)" class="messageLine0" style="fill:none"/></g><g><rect width="10" height="33" x="275" y="394.031" fill="#EDF2AE" stroke="#666" class="activation1" rx="0" ry="0"/></g><g><rect width="10" height="33" x="75" y="394.031" fill="#EDF2AE" stroke="#666" class="activation1" rx="0" ry="0"/></g><g><text x="177.5" y="420.031" class="messageText" style="text-anchor:middle">{ activityId }</text><line x1="85" x2="270" y1="427.031" y2="427.031" stroke="#000" stroke-width="2" marker-end="url(#arrowhead)" class="messageLine1" style="stroke-dasharray:3,3;fill:none"/></g><g><text x="175" y="455.031" class="messageText" style="text-anchor:middle">HTTP</text><line x1="270" x2="80" y1="462.031" y2="462.031" stroke="#000" stroke-width="2" marker-end="url(#arrowhead)" class="messageLine0" style="fill:none"/></g><g><rect width="10" height="33" x="275" y="464.031" fill="#EDF2AE" stroke="#666" class="activation1" rx="0" ry="0"/></g><g><rect width="10" height="33" x="75" y="464.031" fill="#EDF2AE" stroke="#666" class="activation1" rx="0" ry="0"/></g><g><text x="177.5" y="490.031" class="messageText" style="text-anchor:middle">{ activityId }</text><line x1="85" x2="270" y1="497.031" y2="497.031" stroke="#000" stroke-width="2" marker-end="url(#arrowhead)" class="messageLine1" style="stroke-dasharray:3,3;fill:none"/></g><g><line x1="-10" x2="295" y1="156.016" y2="156.016" class="loopLine"/><line x1="295" x2="295" y1="156.016" y2="507.031" class="loopLine"/><line x1="-10" x2="295" y1="507.031" y2="507.031" class="loopLine"/><line x1="-10" x2="-10" y1="156.016" y2="507.031" class="loopLine"/><polygon points="-10 156.016 40 156.016 40 169.016 31.6 176.016 -10 176.016" class="labelBox"/><text x="-2.5" y="171.016" class="labelText"><tspan x="-2.5">opt</tspan></text><text x="142.5" y="171.016" class="loopText" style="text-anchor:middle"><tspan x="142.5">[ REST calls (1) ]</tspan></text></g><g><text x="175" y="535.031" class="messageText" style="text-anchor:middle">200 to Req. 1</text><line x1="270" x2="80" y1="542.031" y2="542.031" stroke="#000" stroke-width="2" marker-end="url(#arrowhead)" class="messageLine1" style="stroke-dasharray:3,3;fill:none"/></g><g><rect width="150" height="65" x="0" y="562.031" fill="#eaeaea" stroke="#666" class="actor" rx="3" ry="3"/><text x="75" y="594.531" alignment-baseline="central" class="actor" dominant-baseline="central" style="text-anchor:middle;font-size:14px"><tspan x="75" dy="0">Bot Framework Service</tspan></text></g><g><rect width="150" height="65" x="200" y="562.031" fill="#eaeaea" stroke="#666" class="actor" rx="3" ry="3"/><text x="275" y="594.531" alignment-baseline="central" class="actor" dominant-baseline="central" style="text-anchor:middle;font-size:14px"><tspan x="275" dy="0">Bot</tspan></text></g></svg>