<svg xmlns="http://www.w3.org/2000/svg" id="mermaid-1585345178913" width="100%" height="100%" viewBox="-50 -10 850 766" style="max-width:850px"><style>#mermaid-1585345178913 .actor{stroke:#ccf;fill:#ececff}#mermaid-1585345178913 text.actor{fill:#000;stroke:none}#mermaid-1585345178913 .actor-line{stroke:gray}#mermaid-1585345178913 .messageLine0,#mermaid-1585345178913 .messageLine1{stroke-width:1.5;stroke-dasharray:&apos;2 2&apos;;stroke:#333}#mermaid-1585345178913 #arrowhead,#mermaid-1585345178913 #sequencenumber{fill:#333}#mermaid-1585345178913 #crosshead path{fill:#333!important;stroke:#333!important}#mermaid-1585345178913 .messageText{fill:#333;stroke:none}#mermaid-1585345178913 .activation0{fill:#f4f4f4;stroke:#666}:root{--mermaid-font-family:&apos;&quot;trebuchet ms&quot;, verdana, arial&apos;;--mermaid-font-family:&quot;Comic Sans MS&quot;, &quot;Comic Sans&quot;, cursive;--mermaid-font-family:&quot;trebuchet ms&quot;, verdana, arial}</style><style>#mermaid-1585345178913{color:#000;font:16px &quot;trebuchet ms&quot;,verdana,arial}</style><g><line id="actor22" x1="75" x2="75" y1="5" y2="755" stroke="#999" stroke-width=".5" class="actor-line"/><rect width="150" height="65" x="0" y="0" fill="#eaeaea" stroke="#666" class="actor" rx="3" ry="3"/><text x="75" y="32.5" alignment-baseline="central" class="actor" dominant-baseline="central" style="text-anchor:middle;font-size:14px"><tspan x="75" dy="0">JwtTokenValidation</tspan></text></g><g><line id="actor23" x1="275" x2="275" y1="5" y2="755" stroke="#999" stroke-width=".5" class="actor-line"/><rect width="150" height="65" x="200" y="0" fill="#eaeaea" stroke="#666" class="actor" rx="3" ry="3"/><text x="275" y="32.5" alignment-baseline="central" class="actor" dominant-baseline="central" style="text-anchor:middle;font-size:14px"><tspan x="275" dy="0">ChannelValidation *1</tspan></text></g><g><line id="actor24" x1="475" x2="475" y1="5" y2="755" stroke="#999" stroke-width=".5" class="actor-line"/><rect width="150" height="65" x="400" y="0" fill="#eaeaea" stroke="#666" class="actor" rx="3" ry="3"/><text x="475" y="32.5" alignment-baseline="central" class="actor" dominant-baseline="central" style="text-anchor:middle;font-size:14px"><tspan x="475" dy="0">JwtTokenExtractor</tspan></text></g><g><line id="actor25" x1="675" x2="675" y1="5" y2="755" stroke="#999" stroke-width=".5" class="actor-line"/><rect width="150" height="65" x="600" y="0" fill="#eaeaea" stroke="#666" class="actor" rx="3" ry="3"/><text x="675" y="32.5" alignment-baseline="central" class="actor" dominant-baseline="central" style="text-anchor:middle;font-size:14px"><tspan x="675" dy="0">AppCredentials</tspan></text></g><defs><marker id="arrowhead" markerHeight="4" markerWidth="6" orient="auto" refX="5" refY="2"><path d="M 0,0 V 4 L6,2 Z"/></marker></defs><defs><marker id="crosshead" markerHeight="8" markerWidth="15" orient="auto" refX="16" refY="4"><path fill="#000" stroke="#000" stroke-width="1" d="M 9,2 V 6 L16,4 Z" style="stroke-dasharray:0,0"/><path fill="none" stroke="#000" stroke-width="1" d="M 0,1 L 6,7 M 6,1 L 0,7" style="stroke-dasharray:0,0"/></marker></defs><defs><marker id="sequencenumber" markerHeight="40" markerWidth="60" orient="auto" refX="15" refY="15"><circle cx="15" cy="15" r="6"/></marker></defs><g><text x="175" y="93" class="messageText" style="text-anchor:middle">identify what Channel is communicating w/Bot</text><line x1="75" x2="275" y1="100" y2="100" stroke="#000" stroke-width="2" marker-end="url(#arrowhead)" class="messageLine0" style="fill:none"/></g><g><rect width="10" height="568" x="70" y="102" fill="#EDF2AE" stroke="#666" class="activation0" rx="0" ry="0"/></g><g><rect width="10" height="33" x="270" y="102" fill="#EDF2AE" stroke="#666" class="activation0" rx="0" ry="0"/></g><g><text x="175" y="128" class="messageText" style="text-anchor:middle">Channel identified</text><line x1="270" x2="80" y1="135" y2="135" stroke="#000" stroke-width="2" marker-end="url(#arrowhead)" class="messageLine1" style="stroke-dasharray:3,3;fill:none"/></g><g><text x="177.5" y="163" class="messageText" style="text-anchor:middle">run Channel-specific validations</text><line x1="80" x2="275" y1="170" y2="170" stroke="#000" stroke-width="2" marker-end="url(#arrowhead)" class="messageLine0" style="fill:none"/></g><g><rect width="10" height="428" x="270" y="172" fill="#EDF2AE" stroke="#666" class="activation0" rx="0" ry="0"/></g><g><text x="280" y="198" class="messageText" style="text-anchor:middle">get appropriate OpenID metadata document</text><path stroke="#000" stroke-width="2" marker-end="url(#arrowhead)" d="M 280,205 C 340,195 340,235 280,225" class="messageLine0" style="fill:none"/></g><g><text x="377.5" y="263" class="messageText" style="text-anchor:middle">extract and validate Token</text><line x1="280" x2="475" y1="270" y2="270" stroke="#000" stroke-width="2" marker-end="url(#arrowhead)" class="messageLine0" style="fill:none"/></g><g><rect width="10" height="228" x="470" y="272" fill="#EDF2AE" stroke="#666" class="activation0" rx="0" ry="0"/></g><g><text x="480" y="298" class="messageText" style="text-anchor:middle">get public signing key *2</text><path stroke="#000" stroke-width="2" marker-end="url(#arrowhead)" d="M 480,305 C 540,295 540,335 480,325" class="messageLine0" style="fill:none"/></g><g><text x="480" y="363" class="messageText" style="text-anchor:middle">verify Token signed w/valid signing algorithm and key</text><path stroke="#000" stroke-width="2" marker-end="url(#arrowhead)" d="M 480,370 C 540,360 540,400 480,390" class="messageLine0" style="fill:none"/></g><g><text x="480" y="428" class="messageText" style="text-anchor:middle">validate endorsements *3</text><path stroke="#000" stroke-width="2" marker-end="url(#arrowhead)" d="M 480,435 C 540,425 540,465 480,455" class="messageLine0" style="fill:none"/></g><g><text x="375" y="493" class="messageText" style="text-anchor:middle">return ClaimsIdentity if Token is valid</text><line x1="470" x2="280" y1="500" y2="500" stroke="#000" stroke-width="2" marker-end="url(#arrowhead)" class="messageLine1" style="stroke-dasharray:3,3;fill:none"/></g><g><text x="280" y="528" class="messageText" style="text-anchor:middle">run Channel-specific validations</text><path stroke="#000" stroke-width="2" marker-end="url(#arrowhead)" d="M 280,535 C 340,525 340,565 280,555" class="messageLine0" style="fill:none"/></g><g><text x="175" y="593" class="messageText" style="text-anchor:middle">return ClaimsIdentity</text><line x1="270" x2="80" y1="600" y2="600" stroke="#000" stroke-width="2" marker-end="url(#arrowhead)" class="messageLine1" style="stroke-dasharray:3,3;fill:none"/></g><g><text x="377.5" y="628" class="messageText" style="text-anchor:middle">trustServiceUrl()</text><line x1="80" x2="675" y1="635" y2="635" stroke="#000" stroke-width="2" marker-end="url(#arrowhead)" class="messageLine0" style="fill:none"/></g><g><rect width="10" height="33" x="670" y="637" fill="#EDF2AE" stroke="#666" class="activation0" rx="0" ry="0"/></g><g><text x="375" y="663" class="messageText" style="text-anchor:middle">host of serviceUrl added to list of trusted hosts</text><line x1="670" x2="80" y1="670" y2="670" stroke="#000" stroke-width="2" marker-end="url(#arrowhead)" class="messageLine1" style="stroke-dasharray:3,3;fill:none"/></g><g><rect width="150" height="65" x="0" y="690" fill="#eaeaea" stroke="#666" class="actor" rx="3" ry="3"/><text x="75" y="722.5" alignment-baseline="central" class="actor" dominant-baseline="central" style="text-anchor:middle;font-size:14px"><tspan x="75" dy="0">JwtTokenValidation</tspan></text></g><g><rect width="150" height="65" x="200" y="690" fill="#eaeaea" stroke="#666" class="actor" rx="3" ry="3"/><text x="275" y="722.5" alignment-baseline="central" class="actor" dominant-baseline="central" style="text-anchor:middle;font-size:14px"><tspan x="275" dy="0">ChannelValidation *1</tspan></text></g><g><rect width="150" height="65" x="400" y="690" fill="#eaeaea" stroke="#666" class="actor" rx="3" ry="3"/><text x="475" y="722.5" alignment-baseline="central" class="actor" dominant-baseline="central" style="text-anchor:middle;font-size:14px"><tspan x="475" dy="0">JwtTokenExtractor</tspan></text></g><g><rect width="150" height="65" x="600" y="690" fill="#eaeaea" stroke="#666" class="actor" rx="3" ry="3"/><text x="675" y="722.5" alignment-baseline="central" class="actor" dominant-baseline="central" style="text-anchor:middle;font-size:14px"><tspan x="675" dy="0">AppCredentials</tspan></text></g></svg>