<svg xmlns="http://www.w3.org/2000/svg" id="mermaid-1585344679519" width="100%" height="100%" viewBox="-50 -10 850 436" style="max-width:850px"><style>#mermaid-1585344679519 .actor{stroke:#ccf;fill:#ececff}#mermaid-1585344679519 text.actor{fill:#000;stroke:none}#mermaid-1585344679519 .actor-line{stroke:gray}#mermaid-1585344679519 .messageLine0{stroke-width:1.5;stroke-dasharray:&apos;2 2&apos;;stroke:#333}#mermaid-1585344679519 #arrowhead,#mermaid-1585344679519 #sequencenumber{fill:#333}#mermaid-1585344679519 #crosshead path{fill:#333!important;stroke:#333!important}#mermaid-1585344679519 .messageText{fill:#333;stroke:none}:root{--mermaid-font-family:&apos;&quot;trebuchet ms&quot;, verdana, arial&apos;;--mermaid-font-family:&quot;Comic Sans MS&quot;, &quot;Comic Sans&quot;, cursive;--mermaid-font-family:&quot;trebuchet ms&quot;, verdana, arial}</style><style>#mermaid-1585344679519{color:#000;font:16px &quot;trebuchet ms&quot;,verdana,arial}</style><g><line id="actor6" x1="75" x2="75" y1="5" y2="425" stroke="#999" stroke-width=".5" class="actor-line"/><rect width="150" height="65" x="0" y="0" fill="#eaeaea" stroke="#666" class="actor" rx="3" ry="3"/><text x="75" y="32.5" alignment-baseline="central" class="actor" dominant-baseline="central" style="text-anchor:middle;font-size:14px"><tspan x="75" dy="0">User</tspan></text></g><g><line id="actor7" x1="275" x2="275" y1="5" y2="425" stroke="#999" stroke-width=".5" class="actor-line"/><rect width="150" height="65" x="200" y="0" fill="#eaeaea" stroke="#666" class="actor" rx="3" ry="3"/><text x="275" y="32.5" alignment-baseline="central" class="actor" dominant-baseline="central" style="text-anchor:middle;font-size:14px"><tspan x="275" dy="0">Channel</tspan></text></g><g><line id="actor8" x1="475" x2="475" y1="5" y2="425" stroke="#999" stroke-width=".5" class="actor-line"/><rect width="150" height="65" x="400" y="0" fill="#eaeaea" stroke="#666" class="actor" rx="3" ry="3"/><text x="475" y="32.5" alignment-baseline="central" class="actor" dominant-baseline="central" style="text-anchor:middle;font-size:14px"><tspan x="475" dy="0">Connector</tspan></text></g><g><line id="actor9" x1="675" x2="675" y1="5" y2="425" stroke="#999" stroke-width=".5" class="actor-line"/><rect width="150" height="65" x="600" y="0" fill="#eaeaea" stroke="#666" class="actor" rx="3" ry="3"/><text x="675" y="32.5" alignment-baseline="central" class="actor" dominant-baseline="central" style="text-anchor:middle;font-size:14px"><tspan x="675" dy="0">Bot</tspan></text></g><defs><marker id="arrowhead" markerHeight="4" markerWidth="6" orient="auto" refX="5" refY="2"><path d="M 0,0 V 4 L6,2 Z"/></marker></defs><defs><marker id="crosshead" markerHeight="8" markerWidth="15" orient="auto" refX="16" refY="4"><path fill="#000" stroke="#000" stroke-width="1" d="M 9,2 V 6 L16,4 Z" style="stroke-dasharray:0,0"/><path fill="none" stroke="#000" stroke-width="1" d="M 0,1 L 6,7 M 6,1 L 0,7" style="stroke-dasharray:0,0"/></marker></defs><defs><marker id="sequencenumber" markerHeight="40" markerWidth="60" orient="auto" refX="15" refY="15"><circle cx="15" cy="15" r="6"/></marker></defs><g><text x="175" y="93" class="messageText" style="text-anchor:middle">send &quot;Why hello, Bot!&quot; to Bot</text><line x1="75" x2="275" y1="100" y2="100" stroke="#000" stroke-width="2" marker-end="url(#arrowhead)" class="messageLine0" style="fill:none"/></g><g><text x="175" y="128" class="messageText" style="text-anchor:middle">requests authorization</text><line x1="275" x2="75" y1="135" y2="135" stroke="#000" stroke-width="2" marker-end="url(#arrowhead)" class="messageLine0" style="fill:none"/></g><g><text x="275" y="163" class="messageText" style="text-anchor:middle">authenticates and authorizes Channel</text><line x1="75" x2="475" y1="170" y2="170" stroke="#000" stroke-width="2" marker-end="url(#arrowhead)" class="messageLine0" style="fill:none"/></g><g><text x="475" y="198" class="messageText" style="text-anchor:middle">creates and signs access and identity tokens</text><path stroke="#000" stroke-width="2" marker-end="url(#arrowhead)" d="M 475,205 C 535,195 535,235 475,225" class="messageLine0" style="fill:none"/></g><g><text x="375" y="263" class="messageText" style="text-anchor:middle">returns access and identity tokens</text><line x1="475" x2="275" y1="270" y2="270" stroke="#000" stroke-width="2" marker-end="url(#arrowhead)" class="messageLine0" style="fill:none"/></g><g><text x="375" y="298" class="messageText" style="text-anchor:middle">makes request with access token to send message</text><line x1="275" x2="475" y1="305" y2="305" stroke="#000" stroke-width="2" marker-end="url(#arrowhead)" class="messageLine0" style="fill:none"/></g><g><text x="575" y="333" class="messageText" style="text-anchor:middle">sends &quot;Why hello, Bot!&quot; with access token</text><line x1="475" x2="675" y1="340" y2="340" stroke="#000" stroke-width="2" marker-end="url(#arrowhead)" class="messageLine0" style="fill:none"/></g><g><rect width="150" height="65" x="0" y="360" fill="#eaeaea" stroke="#666" class="actor" rx="3" ry="3"/><text x="75" y="392.5" alignment-baseline="central" class="actor" dominant-baseline="central" style="text-anchor:middle;font-size:14px"><tspan x="75" dy="0">User</tspan></text></g><g><rect width="150" height="65" x="200" y="360" fill="#eaeaea" stroke="#666" class="actor" rx="3" ry="3"/><text x="275" y="392.5" alignment-baseline="central" class="actor" dominant-baseline="central" style="text-anchor:middle;font-size:14px"><tspan x="275" dy="0">Channel</tspan></text></g><g><rect width="150" height="65" x="400" y="360" fill="#eaeaea" stroke="#666" class="actor" rx="3" ry="3"/><text x="475" y="392.5" alignment-baseline="central" class="actor" dominant-baseline="central" style="text-anchor:middle;font-size:14px"><tspan x="475" dy="0">Connector</tspan></text></g><g><rect width="150" height="65" x="600" y="360" fill="#eaeaea" stroke="#666" class="actor" rx="3" ry="3"/><text x="675" y="392.5" alignment-baseline="central" class="actor" dominant-baseline="central" style="text-anchor:middle;font-size:14px"><tspan x="675" dy="0">Bot</tspan></text></g></svg>