<svg xmlns="http://www.w3.org/2000/svg" id="mermaid-1585344969490" width="100%" height="100%" viewBox="-50 -10 850 531.078" style="max-width:850px"><style>#mermaid-1585344969490 .actor{stroke:#ccf;fill:#ececff}#mermaid-1585344969490 text.actor{fill:#000;stroke:none}#mermaid-1585344969490 .actor-line{stroke:gray}#mermaid-1585344969490 .messageLine0,#mermaid-1585344969490 .messageLine1{stroke-width:1.5;stroke-dasharray:&apos;2 2&apos;;stroke:#333}#mermaid-1585344969490 #arrowhead,#mermaid-1585344969490 #sequencenumber{fill:#333}#mermaid-1585344969490 #crosshead path{fill:#333!important;stroke:#333!important}#mermaid-1585344969490 .messageText{fill:#333;stroke:none}#mermaid-1585344969490 .note{stroke:#aa3;fill:#fff5ad}#mermaid-1585344969490 .noteText{fill:#000;stroke:none;font-family:&apos;trebuchet ms&apos;,verdana,arial;font-family:var(--mermaid-font-family);font-size:14px}:root{--mermaid-font-family:&apos;&quot;trebuchet ms&quot;, verdana, arial&apos;;--mermaid-font-family:&quot;Comic Sans MS&quot;, &quot;Comic Sans&quot;, cursive;--mermaid-font-family:&quot;trebuchet ms&quot;, verdana, arial}</style><style>#mermaid-1585344969490{color:#000;font:16px &quot;trebuchet ms&quot;,verdana,arial}</style><g><line id="actor14" x1="75" x2="75" y1="5" y2="520.078" stroke="#999" stroke-width=".5" class="actor-line"/><rect width="150" height="65" x="0" y="0" fill="#eaeaea" stroke="#666" class="actor" rx="3" ry="3"/><text x="75" y="32.5" alignment-baseline="central" class="actor" dominant-baseline="central" style="text-anchor:middle;font-size:14px"><tspan x="75" dy="0">WebServer</tspan></text></g><g><line id="actor15" x1="275" x2="275" y1="5" y2="520.078" stroke="#999" stroke-width=".5" class="actor-line"/><rect width="150" height="65" x="200" y="0" fill="#eaeaea" stroke="#666" class="actor" rx="3" ry="3"/><text x="275" y="32.5" alignment-baseline="central" class="actor" dominant-baseline="central" style="text-anchor:middle;font-size:14px"><tspan x="275" dy="0">Adapter</tspan></text></g><g><line id="actor16" x1="475" x2="475" y1="5" y2="520.078" stroke="#999" stroke-width=".5" class="actor-line"/><rect width="150" height="65" x="400" y="0" fill="#eaeaea" stroke="#666" class="actor" rx="3" ry="3"/><text x="475" y="32.5" alignment-baseline="central" class="actor" dominant-baseline="central" style="text-anchor:middle;font-size:14px"><tspan x="475" dy="0">JwtTokenValidation</tspan></text></g><g><line id="actor17" x1="675" x2="675" y1="5" y2="520.078" stroke="#999" stroke-width=".5" class="actor-line"/><rect width="150" height="65" x="600" y="0" fill="#eaeaea" stroke="#666" class="actor" rx="3" ry="3"/><text x="675" y="32.5" alignment-baseline="central" class="actor" dominant-baseline="central" style="text-anchor:middle;font-size:14px"><tspan x="675" dy="0">Bot</tspan></text></g><defs><marker id="arrowhead" markerHeight="4" markerWidth="6" orient="auto" refX="5" refY="2"><path d="M 0,0 V 4 L6,2 Z"/></marker></defs><defs><marker id="crosshead" markerHeight="8" markerWidth="15" orient="auto" refX="16" refY="4"><path fill="#000" stroke="#000" stroke-width="1" d="M 9,2 V 6 L16,4 Z" style="stroke-dasharray:0,0"/><path fill="none" stroke="#000" stroke-width="1" d="M 0,1 L 6,7 M 6,1 L 0,7" style="stroke-dasharray:0,0"/></marker></defs><defs><marker id="sequencenumber" markerHeight="40" markerWidth="60" orient="auto" refX="15" refY="15"><circle cx="15" cy="15" r="6"/></marker></defs><g><text x="175" y="93" class="messageText" style="text-anchor:middle">process()</text><line x1="75" x2="275" y1="100" y2="100" stroke="#000" stroke-width="2" marker-end="url(#arrowhead)" class="messageLine0" style="fill:none"/></g><g><rect width="150" height="36.016" x="200" y="110" fill="#EDF2AE" stroke="#666" class="note" rx="0" ry="0"/><text x="196" y="134" class="noteText"><tspan x="216">Deserialize Activity</tspan></text></g><g><rect width="150" height="36.016" x="200" y="156.016" fill="#EDF2AE" stroke="#666" class="note" rx="0" ry="0"/><text x="196" y="180.016" class="noteText"><tspan x="216">Grab Auth Header</tspan></text></g><g><text x="375" y="220.031" class="messageText" style="text-anchor:middle">authenticateRequest()</text><line x1="275" x2="475" y1="227.031" y2="227.031" stroke="#000" stroke-width="2" marker-end="url(#arrowhead)" class="messageLine0" style="fill:none"/></g><g><rect width="150" height="36.016" x="400" y="237.031" fill="#EDF2AE" stroke="#666" class="note" rx="0" ry="0"/><text x="396" y="261.031" class="noteText"><tspan x="416">Validate Token</tspan></text></g><g><rect width="150" height="36.016" x="400" y="283.047" fill="#EDF2AE" stroke="#666" class="note" rx="0" ry="0"/><text x="396" y="307.047" class="noteText"><tspan x="416">Trust serviceUrl</tspan></text></g><g><text x="375" y="347.063" class="messageText" style="text-anchor:middle">returns ClaimsIdentity if Token is valid</text><line x1="475" x2="275" y1="354.063" y2="354.063" stroke="#000" stroke-width="2" marker-end="url(#arrowhead)" class="messageLine1" style="stroke-dasharray:3,3;fill:none"/></g><g><rect width="150" height="36.016" x="200" y="364.063" fill="#EDF2AE" stroke="#666" class="note" rx="0" ry="0"/><text x="196" y="388.063" class="noteText"><tspan x="216">Create ConnectorClient w/AppCredentials</tspan></text></g><g><text x="475" y="428.078" class="messageText" style="text-anchor:middle">Run Middleware and Bot Logic</text><line x1="275" x2="675" y1="435.078" y2="435.078" stroke="#000" stroke-width="2" marker-end="url(#arrowhead)" class="messageLine0" style="fill:none"/></g><g><rect width="150" height="65" x="0" y="455.078" fill="#eaeaea" stroke="#666" class="actor" rx="3" ry="3"/><text x="75" y="487.578" alignment-baseline="central" class="actor" dominant-baseline="central" style="text-anchor:middle;font-size:14px"><tspan x="75" dy="0">WebServer</tspan></text></g><g><rect width="150" height="65" x="200" y="455.078" fill="#eaeaea" stroke="#666" class="actor" rx="3" ry="3"/><text x="275" y="487.578" alignment-baseline="central" class="actor" dominant-baseline="central" style="text-anchor:middle;font-size:14px"><tspan x="275" dy="0">Adapter</tspan></text></g><g><rect width="150" height="65" x="400" y="455.078" fill="#eaeaea" stroke="#666" class="actor" rx="3" ry="3"/><text x="475" y="487.578" alignment-baseline="central" class="actor" dominant-baseline="central" style="text-anchor:middle;font-size:14px"><tspan x="475" dy="0">JwtTokenValidation</tspan></text></g><g><rect width="150" height="65" x="600" y="455.078" fill="#eaeaea" stroke="#666" class="actor" rx="3" ry="3"/><text x="675" y="487.578" alignment-baseline="central" class="actor" dominant-baseline="central" style="text-anchor:middle;font-size:14px"><tspan x="675" dy="0">Bot</tspan></text></g></svg>