<svg xmlns="http://www.w3.org/2000/svg" id="mermaid-1585345072308" width="1424.984" height="234.875" viewBox="-10 -10 956.656 214.875"><style>#mermaid-1585345072308 .label,#mermaid-1585345072308 g.classGroup text{font-family:&apos;trebuchet ms&apos;,verdana,arial;font-family:var(--mermaid-font-family)}#mermaid-1585345072308 .label{color:#333}#mermaid-1585345072308 .label text{fill:#333}#mermaid-1585345072308 g.classGroup text{fill:#9370db;stroke:none;font-size:10px}#mermaid-1585345072308 g.classGroup text .title{font-weight:bolder}#mermaid-1585345072308 g.classGroup rect{fill:#ececff;stroke:#9370db}#mermaid-1585345072308 g.classGroup line{stroke:#9370db;stroke-width:1}#mermaid-1585345072308 .classLabel .box{stroke:none;stroke-width:0;fill:#ececff;opacity:.5}#mermaid-1585345072308 .classLabel .label{fill:#9370db;font-size:10px}#mermaid-1585345072308 .relation{stroke:#9370db;stroke-width:1;fill:none}#mermaid-1585345072308 .dashed-line{stroke-dasharray:3}#mermaid-1585345072308 #compositionEnd,#mermaid-1585345072308 #compositionStart{fill:#9370db;stroke:#9370db;stroke-width:1}#mermaid-1585345072308 #aggregationEnd,#mermaid-1585345072308 #aggregationStart{fill:#ececff;stroke:#9370db;stroke-width:1}#mermaid-1585345072308 #dependencyEnd,#mermaid-1585345072308 #dependencyStart,#mermaid-1585345072308 #extensionEnd,#mermaid-1585345072308 #extensionStart{fill:#9370db;stroke:#9370db;stroke-width:1}:root{--mermaid-font-family:&apos;&quot;trebuchet ms&quot;, verdana, arial&apos;;--mermaid-font-family:&quot;Comic Sans MS&quot;, &quot;Comic Sans&quot;, cursive;--mermaid-font-family:&quot;trebuchet ms&quot;, verdana, arial}</style><style>#mermaid-1585345072308{color:#000;font:16px &quot;trebuchet ms&quot;,verdana,arial}</style><defs><marker id="extensionStart" class="extension" markerHeight="240" markerWidth="190" orient="auto" refX="0" refY="7"><path d="M 1,7 L18,13 V 1 Z"/></marker></defs><defs><marker id="extensionEnd" markerHeight="28" markerWidth="20" orient="auto" refX="19" refY="7"><path d="M 1,1 V 13 L18,7 Z"/></marker></defs><defs><marker id="compositionStart" class="extension" markerHeight="240" markerWidth="190" orient="auto" refX="0" refY="7"><path d="M 18,7 L9,13 L1,7 L9,1 Z"/></marker></defs><defs><marker id="compositionEnd" markerHeight="28" markerWidth="20" orient="auto" refX="19" refY="7"><path d="M 18,7 L9,13 L1,7 L9,1 Z"/></marker></defs><defs><marker id="aggregationStart" class="extension" markerHeight="240" markerWidth="190" orient="auto" refX="0" refY="7"><path d="M 18,7 L9,13 L1,7 L9,1 Z"/></marker></defs><defs><marker id="aggregationEnd" markerHeight="28" markerWidth="20" orient="auto" refX="19" refY="7"><path d="M 18,7 L9,13 L1,7 L9,1 Z"/></marker></defs><defs><marker id="dependencyStart" class="extension" markerHeight="240" markerWidth="190" orient="auto" refX="0" refY="7"><path d="M 5,7 L9,13 L1,7 L9,1 Z"/></marker></defs><defs><marker id="dependencyEnd" markerHeight="28" markerWidth="20" orient="auto" refX="19" refY="7"><path d="M 18,7 L9,13 L14,7 L9,1 Z"/></marker></defs><g id="classid-JwtTokenValidation-8" class="classGroup" transform="translate(443.40234375,0 )"><rect width="102.438" height="31.625" x="0" y="0"/><text x="0" y="15"><tspan x="5" class="title">JwtTokenValidation</tspan></text><line x1="0" x2="102.438" y1="22.016" y2="22.016"/><line x1="0" x2="102.438" y1="27.016" y2="27.016"/></g><g id="classid-ChannelValidation-9" class="classGroup" transform="translate(0,81.625 )"><rect width="94.75" height="31.625" x="0" y="0"/><text x="0" y="15"><tspan x="5" class="title">ChannelValidation</tspan></text><line x1="0" x2="94.75" y1="22.016" y2="22.016"/><line x1="0" x2="94.75" y1="27.016" y2="27.016"/></g><g id="classid-EnterpriseChannelChannelValidation-10" class="classGroup" transform="translate(144.75,81.625 )"><rect width="181.344" height="31.625" x="0" y="0"/><text x="0" y="15"><tspan x="5" class="title">EnterpriseChannelChannelValidation</tspan></text><line x1="0" x2="181.344" y1="22.016" y2="22.016"/><line x1="0" x2="181.344" y1="27.016" y2="27.016"/></g><g id="classid-EmulatorValidation-11" class="classGroup" transform="translate(376.09375,81.625 )"><rect width="99.25" height="31.625" x="0" y="0"/><text x="0" y="15"><tspan x="5" class="title">EmulatorValidation</tspan></text><line x1="0" x2="99.25" y1="22.016" y2="22.016"/><line x1="0" x2="99.25" y1="27.016" y2="27.016"/></g><g id="classid-SkillValidation-12" class="classGroup" transform="translate(525.34375,81.625 )"><rect width="76.359" height="31.625" x="0" y="0"/><text x="0" y="15"><tspan x="5" class="title">SkillValidation</tspan></text><line x1="0" x2="76.359" y1="22.016" y2="22.016"/><line x1="0" x2="76.359" y1="27.016" y2="27.016"/></g><g id="classid-GovernmentChannelValidation-13" class="classGroup" transform="translate(651.703125,81.625 )"><rect width="152.531" height="31.625" x="0" y="0"/><text x="0" y="15"><tspan x="5" class="title">GovernmentChannelValidation</tspan></text><line x1="0" x2="152.531" y1="22.016" y2="22.016"/><line x1="0" x2="152.531" y1="27.016" y2="27.016"/></g><g id="classid-JwtTokenExtractor-14" class="classGroup" transform="translate(375.9296875,163.25 )"><rect width="99.578" height="31.625" x="0" y="0"/><text x="0" y="15"><tspan x="5" class="title">JwtTokenExtractor</tspan></text><line x1="0" x2="99.578" y1="22.016" y2="22.016"/><line x1="0" x2="99.578" y1="27.016" y2="27.016"/></g><g id="classid-AppCredentials-15" class="classGroup" transform="translate(854.234375,81.625 )"><rect width="82.422" height="31.625" x="0" y="0"/><text x="0" y="15"><tspan x="5" class="title">AppCredentials</tspan></text><line x1="0" x2="82.422" y1="22.016" y2="22.016"/><line x1="0" x2="82.422" y1="27.016" y2="27.016"/></g><path id="edge0" d="M443.40234375,20.48635912048561L377.3977864583333,26.50946593373801C311.3932291666667,32.532572746990404,179.38411458333334,44.578786373495205,113.37955729166667,54.768559853414274C47.375,64.95833333333333,47.375,73.29166666666667,47.375,77.45833333333333L47.375,81.625" class="relation dashed-line"/><path id="edge1" d="M443.40234375,23.877204995855625L408.7389322916667,29.335170829879686C374.0755208333333,34.793136663903745,304.7486979166667,45.709068331951876,270.0852864583333,55.33370083264261C235.421875,64.95833333333333,235.421875,73.29166666666667,235.421875,77.45833333333333L235.421875,81.625" class="relation dashed-line"/><path id="edge2" d="M467.92539241960185,31.625L460.8909520163349,35.791666666666664C453.8565116130679,39.958333333333336,439.78763080653397,48.291666666666664,432.75319040326696,56.625C425.71875,64.95833333333333,425.71875,73.29166666666667,425.71875,77.45833333333333L425.71875,81.625" class="relation dashed-line"/><g class="classLabel"><rect width="107.969" height="17.016" x="381.75" y="38.391" class="box"/><text x="436.067" y="50.495" fill="red" class="label" text-anchor="middle">validates Channel with</text></g><path id="edge3" d="M521.3167950803982,31.625L528.3512354836652,35.791666666666664C535.3856758869321,39.958333333333336,549.4545566934661,48.291666666666664,556.488997096733,56.625C563.5234375,64.95833333333333,563.5234375,73.29166666666667,563.5234375,77.45833333333333L563.5234375,81.625" class="relation dashed-line"/><path id="edge4" d="M545.83984375,24.770658260374642L576.1946614583334,30.07971521697887C606.5494791666666,35.3887721735831,667.2591145833334,46.006886086791546,697.6139322916666,55.482609710062434C727.96875,64.95833333333333,727.96875,73.29166666666667,727.96875,77.45833333333333L727.96875,81.625" class="relation dashed-line"/><path id="edge5" marker-end="url(#dependencyEnd)" d="M47.375,113.25L47.375,117.41666666666667C47.375,121.58333333333333,47.375,129.91666666666666,102.13411458333333,139.99028002911538C156.89322916666666,150.0638933915641,266.4114583333333,161.87778678312822,321.1705729166667,167.78473347891028L375.9296875,173.69168017469232" class="relation"/><path id="edge6" marker-end="url(#dependencyEnd)" d="M235.421875,113.25L235.421875,117.41666666666667C235.421875,121.58333333333333,235.421875,129.91666666666666,258.83984375,139.10572715671785C282.2578125,148.29478764676904,329.09375,158.33957529353805,352.51171875,163.36196911692255L375.9296875,168.38436294030708" class="relation"/><path id="edge7" marker-end="url(#dependencyEnd)" d="M425.71875,113.25L425.71875,117.41666666666667C425.71875,121.58333333333333,425.71875,129.91666666666666,425.71875,138.25C425.71875,146.58333333333334,425.71875,154.91666666666666,425.71875,159.08333333333334L425.71875,163.25" class="relation"/><g class="classLabel"><rect width="146.047" height="17.016" x="352.766" y="126.141" class="box"/><text x="425.719" y="138.25" fill="red" class="label" text-anchor="middle">extracts &amp; validates token with</text></g><path id="edge8" marker-end="url(#dependencyEnd)" d="M563.5234375,113.25L563.5234375,117.41666666666667C563.5234375,121.58333333333333,563.5234375,129.91666666666666,548.8541666666666,138.42781265944782C534.1848958333334,146.93895865222896,504.8463541666667,155.62791730445792,490.1770833333333,159.9723966305724L475.5078125,164.31687595668689" class="relation"/><path id="edge9" marker-end="url(#dependencyEnd)" d="M727.96875,113.25L727.96875,117.41666666666667C727.96875,121.58333333333333,727.96875,129.91666666666666,685.8919270833334,139.7649225319651C643.8151041666666,149.61317839726357,559.6614583333334,160.97635679452716,517.5846354166666,166.65794599315893L475.5078125,172.33953519179073" class="relation"/><path id="edge10" marker-end="url(#dependencyEnd)" d="M545.83984375,21.02766698989387L604.107421875,26.960555824911562C662.375,32.89344465992925,778.91015625,44.75922232996462,837.177734375,54.85877783164898C895.4453125,64.95833333333333,895.4453125,73.29166666666667,895.4453125,77.45833333333333L895.4453125,81.625" class="relation"/><g class="classLabel"><rect width="101.141" height="17.016" x="682.578" y="27.984" class="box"/><text x="733.078" y="40.093" fill="red" class="label" text-anchor="middle">trusts serviceUrl with</text></g></svg>