<svg xmlns="http://www.w3.org/2000/svg" id="mermaid-1580420352775" width="100%" height="100%" viewBox="-150 -10 1050 719.047" style="max-width:1050px"><style>#mermaid-1580420352775 .actor{stroke:#ccf;fill:#ececff}#mermaid-1580420352775 text.actor{fill:#000;stroke:none}#mermaid-1580420352775 .actor-line{stroke:gray}#mermaid-1580420352775 .messageLine0,#mermaid-1580420352775 .messageLine1{stroke-width:1.5;stroke-dasharray:&apos;2 2&apos;;stroke:#333}#mermaid-1580420352775 #arrowhead,#mermaid-1580420352775 #sequencenumber{fill:#333}#mermaid-1580420352775 #crosshead path{fill:#333!important;stroke:#333!important}#mermaid-1580420352775 .messageText{fill:#333;stroke:none}#mermaid-1580420352775 .note{stroke:#aa3;fill:#fff5ad}#mermaid-1580420352775 .noteText{fill:#000;stroke:none;font-family:&apos;trebuchet ms&apos;,verdana,arial;font-family:var(--mermaid-font-family);font-size:14px}#mermaid-1580420352775 .activation0,#mermaid-1580420352775 .activation1{fill:#f4f4f4;stroke:#666}:root{--mermaid-font-family:&apos;&quot;trebuchet ms&quot;, verdana, arial&apos;;--mermaid-font-family:&quot;Comic Sans MS&quot;, &quot;Comic Sans&quot;, cursive;--mermaid-font-family:&quot;trebuchet ms&quot;, verdana, arial}</style><style>#mermaid-1580420352775{color:#000;font:16px &quot;trebuchet ms&quot;,verdana,arial}</style><g><line id="actor6" x1="75" x2="75" y1="5" y2="708.047" stroke="#999" stroke-width=".5" class="actor-line"/><rect width="150" height="65" x="0" y="0" fill="#eaeaea" stroke="#666" class="actor" rx="3" ry="3"/><text x="75" y="32.5" alignment-baseline="central" class="actor" dominant-baseline="central" style="text-anchor:middle;font-size:14px"><tspan x="75" dy="0">Channel</tspan></text></g><g><line id="actor7" x1="275" x2="275" y1="5" y2="708.047" stroke="#999" stroke-width=".5" class="actor-line"/><rect width="150" height="65" x="200" y="0" fill="#eaeaea" stroke="#666" class="actor" rx="3" ry="3"/><text x="275" y="32.5" alignment-baseline="central" class="actor" dominant-baseline="central" style="text-anchor:middle;font-size:14px"><tspan x="275" dy="0">Bot Framework Service</tspan></text></g><g><line id="actor8" x1="475" x2="475" y1="5" y2="708.047" stroke="#999" stroke-width=".5" class="actor-line"/><rect width="150" height="65" x="400" y="0" fill="#eaeaea" stroke="#666" class="actor" rx="3" ry="3"/><text x="475" y="32.5" alignment-baseline="central" class="actor" dominant-baseline="central" style="text-anchor:middle;font-size:14px"><tspan x="475" dy="0">Core BF SDK (1)</tspan></text></g><g><line id="actor9" x1="675" x2="675" y1="5" y2="708.047" stroke="#999" stroke-width=".5" class="actor-line"/><rect width="150" height="65" x="600" y="0" fill="#eaeaea" stroke="#666" class="actor" rx="3" ry="3"/><text x="675" y="32.5" alignment-baseline="central" class="actor" dominant-baseline="central" style="text-anchor:middle;font-size:14px"><tspan x="675" dy="0">Bot (2)</tspan></text></g><defs><marker id="arrowhead" markerHeight="4" markerWidth="6" orient="auto" refX="5" refY="2"><path d="M 0,0 V 4 L6,2 Z"/></marker></defs><defs><marker id="crosshead" markerHeight="8" markerWidth="15" orient="auto" refX="16" refY="4"><path fill="#000" stroke="#000" stroke-width="1" d="M 9,2 V 6 L16,4 Z" style="stroke-dasharray:0,0"/><path fill="none" stroke="#000" stroke-width="1" d="M 0,1 L 6,7 M 6,1 L 0,7" style="stroke-dasharray:0,0"/></marker></defs><defs><marker id="sequencenumber" markerHeight="40" markerWidth="60" orient="auto" refX="15" refY="15"><circle cx="15" cy="15" r="6"/></marker></defs><g><rect width="150" height="36.016" x="-100" y="75" fill="#EDF2AE" stroke="#666" class="note" rx="0" ry="0"/><text x="-104" y="99" class="noteText"><tspan x="-84">Message &quot;hi&quot;</tspan></text></g><g><text x="175" y="139.016" class="messageText" style="text-anchor:middle">Inbound HTTP POST (3)</text><line x1="75" x2="275" y1="146.016" y2="146.016" stroke="#000" stroke-width="2" marker-end="url(#arrowhead)" class="messageLine0" style="fill:none"/></g><g><rect width="10" height="475.031" x="70" y="148.016" fill="#EDF2AE" stroke="#666" class="activation0" rx="0" ry="0"/></g><g><rect width="10" height="475.031" x="270" y="148.016" fill="#EDF2AE" stroke="#666" class="activation0" rx="0" ry="0"/></g><g><rect width="150" height="36.016" x="400" y="156.016" fill="#EDF2AE" stroke="#666" class="note" rx="0" ry="0"/><text x="396" y="180.016" class="noteText"><tspan x="416">&quot;api/messages&quot;</tspan></text></g><g><text x="377.5" y="220.031" class="messageText" style="text-anchor:middle">HTTP POST (4)</text><line x1="280" x2="475" y1="227.031" y2="227.031" stroke="#000" stroke-width="2" marker-end="url(#arrowhead)" class="messageLine0" style="fill:none"/></g><g><rect width="10" height="359.016" x="470" y="229.031" fill="#EDF2AE" stroke="#666" class="activation0" rx="0" ry="0"/></g><g><text x="577.5" y="255.031" class="messageText" style="text-anchor:middle">OnTurn()</text><line x1="480" x2="675" y1="262.031" y2="262.031" stroke="#000" stroke-width="2" marker-end="url(#arrowhead)" class="messageLine0" style="fill:none"/></g><g><rect width="10" height="289.016" x="670" y="264.031" fill="#EDF2AE" stroke="#666" class="activation0" rx="0" ry="0"/></g><g><rect width="150" height="36.016" x="700" y="272.031" fill="#EDF2AE" stroke="#666" class="note" rx="0" ry="0"/><text x="696" y="296.031" class="noteText"><tspan x="716">Message: &quot;Echo: &apos;hi&apos;&quot;</tspan></text></g><g><text x="575" y="336.047" class="messageText" style="text-anchor:middle">SendActivity()</text><line x1="670" x2="480" y1="343.047" y2="343.047" stroke="#000" stroke-width="2" marker-end="url(#arrowhead)" class="messageLine0" style="fill:none"/></g><g><rect width="10" height="173" x="675" y="345.047" fill="#EDF2AE" stroke="#666" class="activation1" rx="0" ry="0"/></g><g><rect width="10" height="173" x="475" y="345.047" fill="#EDF2AE" stroke="#666" class="activation1" rx="0" ry="0"/></g><g><text x="375" y="371.047" class="messageText" style="text-anchor:middle">Outbound HTTP (5)</text><line x1="470" x2="280" y1="378.047" y2="378.047" stroke="#000" stroke-width="2" marker-end="url(#arrowhead)" class="messageLine0" style="fill:none"/></g><g><rect width="10" height="103" x="275" y="380.047" fill="#EDF2AE" stroke="#666" class="activation1" rx="0" ry="0"/></g><g><text x="175" y="406.047" class="messageText" style="text-anchor:middle">Outbound HTTP (3)</text><line x1="270" x2="80" y1="413.047" y2="413.047" stroke="#000" stroke-width="2" marker-end="url(#arrowhead)" class="messageLine0" style="fill:none"/></g><g><rect width="10" height="33" x="75" y="415.047" fill="#EDF2AE" stroke="#666" class="activation1" rx="0" ry="0"/></g><g><text x="177.5" y="441.047" class="messageText" style="text-anchor:middle">Response to Outbound</text><line x1="85" x2="270" y1="448.047" y2="448.047" stroke="#000" stroke-width="2" marker-end="url(#arrowhead)" class="messageLine1" style="stroke-dasharray:3,3;fill:none"/></g><g><text x="377.5" y="476.047" class="messageText" style="text-anchor:middle">Response to Outbound</text><line x1="285" x2="470" y1="483.047" y2="483.047" stroke="#000" stroke-width="2" marker-end="url(#arrowhead)" class="messageLine1" style="stroke-dasharray:3,3;fill:none"/></g><g><text x="577.5" y="511.047" class="messageText" style="text-anchor:middle">Response to Outbound</text><line x1="485" x2="670" y1="518.047" y2="518.047" stroke="#000" stroke-width="2" marker-end="url(#arrowhead)" class="messageLine1" style="stroke-dasharray:3,3;fill:none"/></g><g><text x="575" y="546.047" class="messageText" style="text-anchor:middle">Response to Inbound</text><line x1="670" x2="480" y1="553.047" y2="553.047" stroke="#000" stroke-width="2" marker-end="url(#arrowhead)" class="messageLine1" style="stroke-dasharray:3,3;fill:none"/></g><g><text x="375" y="581.047" class="messageText" style="text-anchor:middle">Response to Inbound</text><line x1="470" x2="280" y1="588.047" y2="588.047" stroke="#000" stroke-width="2" marker-end="url(#arrowhead)" class="messageLine1" style="stroke-dasharray:3,3;fill:none"/></g><g><text x="175" y="616.047" class="messageText" style="text-anchor:middle">Response to Inbound</text><line x1="270" x2="80" y1="623.047" y2="623.047" stroke="#000" stroke-width="2" marker-end="url(#arrowhead)" class="messageLine1" style="stroke-dasharray:3,3;fill:none"/></g><g><rect width="150" height="65" x="0" y="643.047" fill="#eaeaea" stroke="#666" class="actor" rx="3" ry="3"/><text x="75" y="675.547" alignment-baseline="central" class="actor" dominant-baseline="central" style="text-anchor:middle;font-size:14px"><tspan x="75" dy="0">Channel</tspan></text></g><g><rect width="150" height="65" x="200" y="643.047" fill="#eaeaea" stroke="#666" class="actor" rx="3" ry="3"/><text x="275" y="675.547" alignment-baseline="central" class="actor" dominant-baseline="central" style="text-anchor:middle;font-size:14px"><tspan x="275" dy="0">Bot Framework Service</tspan></text></g><g><rect width="150" height="65" x="400" y="643.047" fill="#eaeaea" stroke="#666" class="actor" rx="3" ry="3"/><text x="475" y="675.547" alignment-baseline="central" class="actor" dominant-baseline="central" style="text-anchor:middle;font-size:14px"><tspan x="475" dy="0">Core BF SDK (1)</tspan></text></g><g><rect width="150" height="65" x="600" y="643.047" fill="#eaeaea" stroke="#666" class="actor" rx="3" ry="3"/><text x="675" y="675.547" alignment-baseline="central" class="actor" dominant-baseline="central" style="text-anchor:middle;font-size:14px"><tspan x="675" dy="0">Bot (2)</tspan></text></g></svg>