<svg xmlns="http://www.w3.org/2000/svg" id="mermaid-1583957908670" width="216.148" height="234.875" viewBox="-10 -10 150.766 214.875"><style>#mermaid-1583957908670 .label,#mermaid-1583957908670 g.classGroup text{font-family:&apos;trebuchet ms&apos;,verdana,arial;font-family:var(--mermaid-font-family)}#mermaid-1583957908670 .label{color:#333}#mermaid-1583957908670 .label text{fill:#333}#mermaid-1583957908670 g.classGroup text{fill:#9370db;stroke:none;font-size:10px}#mermaid-1583957908670 g.classGroup text .title{font-weight:bolder}#mermaid-1583957908670 g.classGroup rect{fill:#ececff;stroke:#9370db}#mermaid-1583957908670 g.classGroup line{stroke:#9370db;stroke-width:1}#mermaid-1583957908670 .classLabel .box{stroke:none;stroke-width:0;fill:#ececff;opacity:.5}#mermaid-1583957908670 .classLabel .label{fill:#9370db;font-size:10px}#mermaid-1583957908670 .relation{stroke:#9370db;stroke-width:1;fill:none}#mermaid-1583957908670 #compositionEnd,#mermaid-1583957908670 #compositionStart{fill:#9370db;stroke:#9370db;stroke-width:1}#mermaid-1583957908670 #aggregationEnd,#mermaid-1583957908670 #aggregationStart{fill:#ececff;stroke:#9370db;stroke-width:1}#mermaid-1583957908670 #dependencyEnd,#mermaid-1583957908670 #dependencyStart,#mermaid-1583957908670 #extensionEnd,#mermaid-1583957908670 #extensionStart{fill:#9370db;stroke:#9370db;stroke-width:1}:root{--mermaid-font-family:&apos;&quot;trebuchet ms&quot;, verdana, arial&apos;;--mermaid-font-family:&quot;Comic Sans MS&quot;, &quot;Comic Sans&quot;, cursive;--mermaid-font-family:&quot;trebuchet ms&quot;, verdana, arial}</style><style>#mermaid-1583957908670{color:#000;font:16px &quot;trebuchet ms&quot;,verdana,arial}</style><defs><marker id="extensionStart" class="extension" markerHeight="240" markerWidth="190" orient="auto" refX="0" refY="7"><path d="M 1,7 L18,13 V 1 Z"/></marker></defs><defs><marker id="extensionEnd" markerHeight="28" markerWidth="20" orient="auto" refX="19" refY="7"><path d="M 1,1 V 13 L18,7 Z"/></marker></defs><defs><marker id="compositionStart" class="extension" markerHeight="240" markerWidth="190" orient="auto" refX="0" refY="7"><path d="M 18,7 L9,13 L1,7 L9,1 Z"/></marker></defs><defs><marker id="compositionEnd" markerHeight="28" markerWidth="20" orient="auto" refX="19" refY="7"><path d="M 18,7 L9,13 L1,7 L9,1 Z"/></marker></defs><defs><marker id="aggregationStart" class="extension" markerHeight="240" markerWidth="190" orient="auto" refX="0" refY="7"><path d="M 18,7 L9,13 L1,7 L9,1 Z"/></marker></defs><defs><marker id="aggregationEnd" markerHeight="28" markerWidth="20" orient="auto" refX="19" refY="7"><path d="M 18,7 L9,13 L1,7 L9,1 Z"/></marker></defs><defs><marker id="dependencyStart" class="extension" markerHeight="240" markerWidth="190" orient="auto" refX="0" refY="7"><path d="M 5,7 L9,13 L1,7 L9,1 Z"/></marker></defs><defs><marker id="dependencyEnd" markerHeight="28" markerWidth="20" orient="auto" refX="19" refY="7"><path d="M 18,7 L9,13 L14,7 L9,1 Z"/></marker></defs><g id="classid-BotFrameworkAdapter-46" class="classGroup" transform="translate(7.3359375,0 )"><rect width="116.094" height="31.625" x="0" y="0"/><text x="0" y="15"><tspan x="5" class="title">BotFrameworkAdapter</tspan></text><line x1="0" x2="116.094" y1="22.016" y2="22.016"/><line x1="0" x2="116.094" y1="27.016" y2="27.016"/></g><g id="classid-ICredentialProvider-47" class="classGroup" transform="translate(14.21875,81.625 )"><rect width="102.328" height="31.625" x="0" y="0"/><text x="0" y="15"><tspan x="5" class="title">ICredentialProvider</tspan></text><line x1="0" x2="102.328" y1="22.016" y2="22.016"/><line x1="0" x2="102.328" y1="27.016" y2="27.016"/></g><g id="classid-SimpleCredentialProvider-48" class="classGroup" transform="translate(0,163.25 )"><rect width="130.766" height="31.625" x="0" y="0"/><text x="0" y="15"><tspan x="5" class="title">SimpleCredentialProvider</tspan></text><line x1="0" x2="130.766" y1="22.016" y2="22.016"/><line x1="0" x2="130.766" y1="27.016" y2="27.016"/></g><path id="edge26" marker-start="url(#compositionStart)" d="M65.3828125,31.625L65.3828125,35.791666666666664C65.3828125,39.958333333333336,65.3828125,48.291666666666664,65.3828125,56.625C65.3828125,64.95833333333333,65.3828125,73.29166666666667,65.3828125,77.45833333333333L65.3828125,81.625" class="relation"/><g class="classLabel"><rect width="98.047" height="17.016" x="16.375" y="44.516" class="box"/><text x="65.383" y="56.625" fill="red" class="label" text-anchor="middle">uses to get password</text></g><path id="edge27" marker-start="url(#extensionStart)" d="M65.3828125,113.25L65.3828125,117.41666666666667C65.3828125,121.58333333333333,65.3828125,129.91666666666666,65.3828125,138.25C65.3828125,146.58333333333334,65.3828125,154.91666666666666,65.3828125,159.08333333333334L65.3828125,163.25" class="relation"/><g class="classLabel"><rect width="111.719" height="17.016" x="9.594" y="126.141" class="box"/><text x="65.383" y="138.25" fill="red" class="label" text-anchor="middle">default implementation</text></g></svg>