<svg xmlns="http://www.w3.org/2000/svg" id="mermaid-1583957764053" width="522.711" height="336.5" viewBox="-10 -10 355.141 316.5"><style>#mermaid-1583957764053 g.classGroup text{fill:#9370db;stroke:none;font-family:&apos;trebuchet ms&apos;,verdana,arial;font-family:var(--mermaid-font-family);font-size:10px}#mermaid-1583957764053 g.classGroup text .title{font-weight:bolder}#mermaid-1583957764053 g.classGroup rect{fill:#ececff;stroke:#9370db}#mermaid-1583957764053 g.classGroup line{stroke:#9370db;stroke-width:1}#mermaid-1583957764053 .relation{stroke:#9370db;stroke-width:1;fill:none}#mermaid-1583957764053 #compositionEnd,#mermaid-1583957764053 #compositionStart{fill:#9370db;stroke:#9370db;stroke-width:1}#mermaid-1583957764053 #aggregationEnd,#mermaid-1583957764053 #aggregationStart{fill:#ececff;stroke:#9370db;stroke-width:1}#mermaid-1583957764053 #dependencyEnd,#mermaid-1583957764053 #dependencyStart,#mermaid-1583957764053 #extensionEnd,#mermaid-1583957764053 #extensionStart{fill:#9370db;stroke:#9370db;stroke-width:1}:root{--mermaid-font-family:&apos;&quot;trebuchet ms&quot;, verdana, arial&apos;;--mermaid-font-family:&quot;Comic Sans MS&quot;, &quot;Comic Sans&quot;, cursive;--mermaid-font-family:&quot;trebuchet ms&quot;, verdana, arial}</style><style>#mermaid-1583957764053{color:#000;font:16px &quot;trebuchet ms&quot;,verdana,arial}</style><defs><marker id="extensionStart" class="extension" markerHeight="240" markerWidth="190" orient="auto" refX="0" refY="7"><path d="M 1,7 L18,13 V 1 Z"/></marker></defs><defs><marker id="extensionEnd" markerHeight="28" markerWidth="20" orient="auto" refX="19" refY="7"><path d="M 1,1 V 13 L18,7 Z"/></marker></defs><defs><marker id="compositionStart" class="extension" markerHeight="240" markerWidth="190" orient="auto" refX="0" refY="7"><path d="M 18,7 L9,13 L1,7 L9,1 Z"/></marker></defs><defs><marker id="compositionEnd" markerHeight="28" markerWidth="20" orient="auto" refX="19" refY="7"><path d="M 18,7 L9,13 L1,7 L9,1 Z"/></marker></defs><defs><marker id="aggregationStart" class="extension" markerHeight="240" markerWidth="190" orient="auto" refX="0" refY="7"><path d="M 18,7 L9,13 L1,7 L9,1 Z"/></marker></defs><defs><marker id="aggregationEnd" markerHeight="28" markerWidth="20" orient="auto" refX="19" refY="7"><path d="M 18,7 L9,13 L1,7 L9,1 Z"/></marker></defs><defs><marker id="dependencyStart" class="extension" markerHeight="240" markerWidth="190" orient="auto" refX="0" refY="7"><path d="M 5,7 L9,13 L1,7 L9,1 Z"/></marker></defs><defs><marker id="dependencyEnd" markerHeight="28" markerWidth="20" orient="auto" refX="19" refY="7"><path d="M 18,7 L9,13 L14,7 L9,1 Z"/></marker></defs><g id="classid-ServiceClientCredentials-33" class="classGroup" transform="translate(93.6953125,0 )"><rect width="173.234" height="41.625" x="0" y="0"/><text x="0" y="15"><tspan x="5">«abstract»</tspan><tspan x="5" class="title" dy="10">ServiceClientCredentials</tspan></text><line x1="0" x2="173.234" y1="32.016" y2="32.016"/><line x1="0" x2="173.234" y1="37.016" y2="37.016"/></g><g id="classid-AppCredentials-34" class="classGroup" transform="translate(115.8125,91.625 )"><rect width="129" height="41.625" x="0" y="0"/><text x="0" y="15"><tspan x="5">«abstract»</tspan><tspan x="5" class="title" dy="10">AppCredentials</tspan></text><line x1="0" x2="129" y1="32.016" y2="32.016"/><line x1="0" x2="129" y1="37.016" y2="37.016"/></g><g id="classid-MicrosoftAppCredentials-35" class="classGroup" transform="translate(28.890625,183.25 )"><rect width="124.719" height="31.625" x="0" y="0"/><text x="0" y="15"><tspan x="5" class="title">MicrosoftAppCredentials</tspan></text><line x1="0" x2="124.719" y1="22.016" y2="22.016"/><line x1="0" x2="124.719" y1="27.016" y2="27.016"/></g><g id="classid-MicrosoftGovernmentAppCredentials-36" class="classGroup" transform="translate(0,264.875 )"><rect width="182.5" height="31.625" x="0" y="0"/><text x="0" y="15"><tspan x="5" class="title">MicrosoftGovernmentAppCredentials</tspan></text><line x1="0" x2="182.5" y1="22.016" y2="22.016"/><line x1="0" x2="182.5" y1="27.016" y2="27.016"/></g><g id="classid-CertificateAppCredentials-37" class="classGroup" transform="translate(203.609375,183.25 )"><rect width="131.531" height="31.625" x="0" y="0"/><text x="0" y="15"><tspan x="5" class="title">CertificateAppCredentials</tspan></text><line x1="0" x2="131.531" y1="22.016" y2="22.016"/><line x1="0" x2="131.531" y1="27.016" y2="27.016"/></g><path id="edge18" marker-start="url(#extensionStart)" d="M180.3125,41.625L180.3125,45.791666666666664C180.3125,49.958333333333336,180.3125,58.291666666666664,180.3125,66.625C180.3125,74.95833333333333,180.3125,83.29166666666667,180.3125,87.45833333333333L180.3125,91.625" class="relation"/><path id="edge19" marker-end="url(#extensionEnd)" d="M139.85163710777627,133.25L131.75136425648023,137.41666666666666C123.65109140518418,141.58333333333334,107.45054570259208,149.91666666666666,99.35027285129604,158.25C91.25,166.58333333333334,91.25,174.91666666666666,91.25,179.08333333333334L91.25,183.25" class="relation"/><path id="edge20" marker-end="url(#extensionEnd)" d="M91.25,214.875L91.25,219.04166666666666C91.25,223.20833333333334,91.25,231.54166666666666,91.25,239.875C91.25,248.20833333333334,91.25,256.5416666666667,91.25,260.7083333333333L91.25,264.875" class="relation"/><path id="edge21" marker-end="url(#extensionEnd)" d="M220.77336289222373,133.25L228.87363574351977,137.41666666666666C236.97390859481584,141.58333333333334,253.17445429740792,149.91666666666666,261.27472714870396,158.25C269.375,166.58333333333334,269.375,174.91666666666666,269.375,179.08333333333334L269.375,183.25" class="relation"/></svg>