<svg xmlns="http://www.w3.org/2000/svg" id="mermaid-1584396222913" width="362.656" height="518.344" viewBox="-10 -10 248.438 498.344"><style>#mermaid-1584396222913 .label,#mermaid-1584396222913 g.classGroup text{font-family:&apos;trebuchet ms&apos;,verdana,arial;font-family:var(--mermaid-font-family)}#mermaid-1584396222913 .label{color:#333}#mermaid-1584396222913 .label text{fill:#333}#mermaid-1584396222913 g.classGroup text{fill:#9370db;stroke:none;font-size:10px}#mermaid-1584396222913 g.classGroup text .title{font-weight:bolder}#mermaid-1584396222913 g.classGroup rect{fill:#ececff;stroke:#9370db}#mermaid-1584396222913 g.classGroup line{stroke:#9370db;stroke-width:1}#mermaid-1584396222913 .classLabel .box{stroke:none;stroke-width:0;fill:#ececff;opacity:.5}#mermaid-1584396222913 .classLabel .label{fill:#9370db;font-size:10px}#mermaid-1584396222913 .relation{stroke:#9370db;stroke-width:1;fill:none}#mermaid-1584396222913 #compositionEnd,#mermaid-1584396222913 #compositionStart{fill:#9370db;stroke:#9370db;stroke-width:1}#mermaid-1584396222913 #aggregationEnd,#mermaid-1584396222913 #aggregationStart{fill:#ececff;stroke:#9370db;stroke-width:1}#mermaid-1584396222913 #dependencyEnd,#mermaid-1584396222913 #dependencyStart,#mermaid-1584396222913 #extensionEnd,#mermaid-1584396222913 #extensionStart{fill:#9370db;stroke:#9370db;stroke-width:1}:root{--mermaid-font-family:&apos;&quot;trebuchet ms&quot;, verdana, arial&apos;;--mermaid-font-family:&quot;Comic Sans MS&quot;, &quot;Comic Sans&quot;, cursive;--mermaid-font-family:&quot;trebuchet ms&quot;, verdana, arial}</style><style>#mermaid-1584396222913{color:#000;font:16px &quot;trebuchet ms&quot;,verdana,arial}</style><defs><marker id="extensionStart" class="extension" markerHeight="240" markerWidth="190" orient="auto" refX="0" refY="7"><path d="M 1,7 L18,13 V 1 Z"/></marker></defs><defs><marker id="extensionEnd" markerHeight="28" markerWidth="20" orient="auto" refX="19" refY="7"><path d="M 1,1 V 13 L18,7 Z"/></marker></defs><defs><marker id="compositionStart" class="extension" markerHeight="240" markerWidth="190" orient="auto" refX="0" refY="7"><path d="M 18,7 L9,13 L1,7 L9,1 Z"/></marker></defs><defs><marker id="compositionEnd" markerHeight="28" markerWidth="20" orient="auto" refX="19" refY="7"><path d="M 18,7 L9,13 L1,7 L9,1 Z"/></marker></defs><defs><marker id="aggregationStart" class="extension" markerHeight="240" markerWidth="190" orient="auto" refX="0" refY="7"><path d="M 18,7 L9,13 L1,7 L9,1 Z"/></marker></defs><defs><marker id="aggregationEnd" markerHeight="28" markerWidth="20" orient="auto" refX="19" refY="7"><path d="M 18,7 L9,13 L1,7 L9,1 Z"/></marker></defs><defs><marker id="dependencyStart" class="extension" markerHeight="240" markerWidth="190" orient="auto" refX="0" refY="7"><path d="M 5,7 L9,13 L1,7 L9,1 Z"/></marker></defs><defs><marker id="dependencyEnd" markerHeight="28" markerWidth="20" orient="auto" refX="19" refY="7"><path d="M 18,7 L9,13 L14,7 L9,1 Z"/></marker></defs><g id="classid-OAuthPrompt-6" class="classGroup" transform="translate(66.1171875,0 )"><rect width="117.75" height="53.641" x="0" y="0"/><text x="0" y="15"><tspan x="26.781" class="title">OAuthPrompt</tspan></text><line x1="0" x2="117.75" y1="22.016" y2="22.016"/><text x="5" y="32.016" fill="#fff" class="classText"><tspan x="5">- OAuthPromptSettings</tspan><tspan x="5" dy="10">- PromptValidator</tspan></text><line x1="0" x2="117.75" y1="49.031" y2="49.031"/></g><g id="classid-BotAdapter-7" class="classGroup" transform="translate(0,355.09375 )"><rect width="110.766" height="41.625" x="0" y="0"/><text x="0" y="15"><tspan x="5">«abstract»</tspan><tspan x="5" class="title" dy="10">BotAdapter</tspan></text><line x1="0" x2="110.766" y1="32.016" y2="32.016"/><line x1="0" x2="110.766" y1="37.016" y2="37.016"/></g><g id="classid-IExtendedUserTokenProvider-8" class="classGroup" transform="translate(26.0859375,103.640625 )"><rect width="197.813" height="119.828" x="0" y="0"/><text x="0" y="15"><tspan x="5">«Interface»</tspan><tspan x="5" class="title" dy="10">IExtendedUserTokenProvider</tspan></text><line x1="0" x2="197.813" y1="32.016" y2="32.016"/><line x1="0" x2="197.813" y1="37.016" y2="37.016"/><text x="5" y="52.016" fill="#fff" class="classText"><tspan x="5">GetUserTokenAsync()</tspan><tspan x="5" dy="10">GetOauthSignInLinkAsync()</tspan><tspan x="5" dy="10">SignOutUserAsync()</tspan><tspan x="5" dy="10">GetTokenStatusAsync()</tspan><tspan x="5" dy="10">GetAadTokenAsync()</tspan><tspan x="5" dy="10">GetSignInResourceAsync()</tspan><tspan x="5" dy="10">ExchangeTokenAsync()</tspan></text></g><g id="classid-BotFrameworkAdapter-9" class="classGroup" transform="translate(66.9453125,273.46875 )"><rect width="116.094" height="31.625" x="0" y="0"/><text x="0" y="15"><tspan x="5" class="title">BotFrameworkAdapter</tspan></text><line x1="0" x2="116.094" y1="22.016" y2="22.016"/><line x1="0" x2="116.094" y1="27.016" y2="27.016"/></g><g id="classid-TurnContext-10" class="classGroup" transform="translate(20.46875,446.71875 )"><rect width="69.828" height="31.625" x="0" y="0"/><text x="0" y="15"><tspan x="5" class="title">TurnContext</tspan></text><line x1="0" x2="69.828" y1="22.016" y2="22.016"/><line x1="0" x2="69.828" y1="27.016" y2="27.016"/></g><g id="classid-OAuthClient-11" class="classGroup" transform="translate(160.765625,360.09375 )"><rect width="67.672" height="31.625" x="0" y="0"/><text x="0" y="15"><tspan x="5" class="title">OAuthClient</tspan></text><line x1="0" x2="67.672" y1="22.016" y2="22.016"/><line x1="0" x2="67.672" y1="27.016" y2="27.016"/></g><path id="edge0" marker-start="url(#aggregationStart)" d="M124.9921875,53.640625L124.9921875,57.807291666666664C124.9921875,61.973958333333336,124.9921875,70.30729166666667,124.9921875,78.640625C124.9921875,86.97395833333333,124.9921875,95.30729166666667,124.9921875,99.47395833333333L124.9921875,103.640625" class="relation"/><g class="classLabel"><rect width="106.063" height="17.016" x="72.422" y="66.531" class="box"/><text x="124.992" y="78.641" fill="red" class="label" text-anchor="middle">uses as token provider</text></g><path id="edge1" marker-end="url(#extensionEnd)" d="M98.02255216309342,305.09375L90.91592888591119,309.2604166666667C83.80930560872895,313.4270833333333,69.59605905436447,321.7604166666667,62.489435777182244,330.09375C55.3828125,338.4270833333333,55.3828125,346.7604166666667,55.3828125,350.9270833333333L55.3828125,355.09375" class="relation"/><g class="classLabel"><rect width="61.938" height="17.016" x="35.203" y="311.813" class="box"/><text x="65.919" y="323.916" fill="red" class="label" text-anchor="middle">derives from</text></g><path id="edge2" marker-end="url(#aggregationEnd)" d="M55.3828125,396.71875L55.3828125,400.8854166666667C55.3828125,405.0520833333333,55.3828125,413.3854166666667,55.3828125,421.71875C55.3828125,430.0520833333333,55.3828125,438.3854166666667,55.3828125,442.5520833333333L55.3828125,446.71875" class="relation"/><g class="classLabel"><rect width="73.344" height="17.016" x="19.266" y="409.609" class="box"/><text x="55.383" y="421.719" fill="red" class="label" text-anchor="middle">is a member of</text></g><path id="edge3" marker-start="url(#extensionStart)" d="M124.9921875,223.46875L124.9921875,227.63541666666666C124.9921875,231.80208333333334,124.9921875,240.13541666666666,124.9921875,248.46875C124.9921875,256.8020833333333,124.9921875,265.1354166666667,124.9921875,269.3020833333333L124.9921875,273.46875" class="relation"/><path id="edge4" marker-end="url(#dependencyEnd)" d="M151.96182283690658,305.09375L159.0684461140888,309.2604166666667C166.17506939127105,313.4270833333333,180.38831594563553,321.7604166666667,187.49493922281775,330.9270833333333C194.6015625,340.09375,194.6015625,350.09375,194.6015625,355.09375L194.6015625,360.09375" class="relation"/><g class="classLabel"><rect width="100.922" height="17.016" x="136.141" y="313.078" class="box"/><text x="186.222" y="325.181" fill="red" class="label" text-anchor="middle">creates to get tokens</text></g></svg>