<svg xmlns="http://www.w3.org/2000/svg" id="mermaid-1583960598691" width="479.375" height="254.875" viewBox="-10 -10 326.25 234.875"><style>#mermaid-1583960598691 g.classGroup text{fill:#9370db;stroke:none;font-family:&apos;trebuchet ms&apos;,verdana,arial;font-family:var(--mermaid-font-family);font-size:10px}#mermaid-1583960598691 g.classGroup text .title{font-weight:bolder}#mermaid-1583960598691 g.classGroup rect{fill:#ececff;stroke:#9370db}#mermaid-1583960598691 g.classGroup line{stroke:#9370db;stroke-width:1}#mermaid-1583960598691 .relation{stroke:#9370db;stroke-width:1;fill:none}#mermaid-1583960598691 #compositionEnd,#mermaid-1583960598691 #compositionStart{fill:#9370db;stroke:#9370db;stroke-width:1}#mermaid-1583960598691 #aggregationEnd,#mermaid-1583960598691 #aggregationStart{fill:#ececff;stroke:#9370db;stroke-width:1}#mermaid-1583960598691 #dependencyEnd,#mermaid-1583960598691 #dependencyStart,#mermaid-1583960598691 #extensionEnd,#mermaid-1583960598691 #extensionStart{fill:#9370db;stroke:#9370db;stroke-width:1}:root{--mermaid-font-family:&apos;&quot;trebuchet ms&quot;, verdana, arial&apos;;--mermaid-font-family:&quot;Comic Sans MS&quot;, &quot;Comic Sans&quot;, cursive;--mermaid-font-family:&quot;trebuchet ms&quot;, verdana, arial}</style><style>#mermaid-1583960598691{color:#000;font:16px &quot;trebuchet ms&quot;,verdana,arial}</style><defs><marker id="extensionStart" class="extension" markerHeight="240" markerWidth="190" orient="auto" refX="0" refY="7"><path d="M 1,7 L18,13 V 1 Z"/></marker></defs><defs><marker id="extensionEnd" markerHeight="28" markerWidth="20" orient="auto" refX="19" refY="7"><path d="M 1,1 V 13 L18,7 Z"/></marker></defs><defs><marker id="compositionStart" class="extension" markerHeight="240" markerWidth="190" orient="auto" refX="0" refY="7"><path d="M 18,7 L9,13 L1,7 L9,1 Z"/></marker></defs><defs><marker id="compositionEnd" markerHeight="28" markerWidth="20" orient="auto" refX="19" refY="7"><path d="M 18,7 L9,13 L1,7 L9,1 Z"/></marker></defs><defs><marker id="aggregationStart" class="extension" markerHeight="240" markerWidth="190" orient="auto" refX="0" refY="7"><path d="M 18,7 L9,13 L1,7 L9,1 Z"/></marker></defs><defs><marker id="aggregationEnd" markerHeight="28" markerWidth="20" orient="auto" refX="19" refY="7"><path d="M 18,7 L9,13 L1,7 L9,1 Z"/></marker></defs><defs><marker id="dependencyStart" class="extension" markerHeight="240" markerWidth="190" orient="auto" refX="0" refY="7"><path d="M 5,7 L9,13 L1,7 L9,1 Z"/></marker></defs><defs><marker id="dependencyEnd" markerHeight="28" markerWidth="20" orient="auto" refX="19" refY="7"><path d="M 18,7 L9,13 L14,7 L9,1 Z"/></marker></defs><g id="classid-ServiceClientCredentials-46" class="classGroup" transform="translate(62.7578125,0 )"><rect width="177.328" height="41.625" x="0" y="0"/><text x="0" y="15"><tspan x="5">«interface»</tspan><tspan x="5" class="title" dy="10">ServiceClientCredentials</tspan></text><line x1="0" x2="177.328" y1="32.016" y2="32.016"/><line x1="0" x2="177.328" y1="37.016" y2="37.016"/></g><g id="classid-AppCredentials-47" class="classGroup" transform="translate(86.921875,91.625 )"><rect width="129" height="41.625" x="0" y="0"/><text x="0" y="15"><tspan x="5">«abstract»</tspan><tspan x="5" class="title" dy="10">AppCredentials</tspan></text><line x1="0" x2="129" y1="32.016" y2="32.016"/><line x1="0" x2="129" y1="37.016" y2="37.016"/></g><g id="classid-MicrosoftAppCredentials-48" class="classGroup" transform="translate(0,183.25 )"><rect width="124.719" height="31.625" x="0" y="0"/><text x="0" y="15"><tspan x="5" class="title">MicrosoftAppCredentials</tspan></text><line x1="0" x2="124.719" y1="22.016" y2="22.016"/><line x1="0" x2="124.719" y1="27.016" y2="27.016"/></g><g id="classid-CertificateAppCredentials-49" class="classGroup" transform="translate(174.71875,183.25 )"><rect width="131.531" height="31.625" x="0" y="0"/><text x="0" y="15"><tspan x="5" class="title">CertificateAppCredentials</tspan></text><line x1="0" x2="131.531" y1="22.016" y2="22.016"/><line x1="0" x2="131.531" y1="27.016" y2="27.016"/></g><path id="edge24" marker-start="url(#extensionStart)" d="M151.421875,41.625L151.421875,45.791666666666664C151.421875,49.958333333333336,151.421875,58.291666666666664,151.421875,66.625C151.421875,74.95833333333333,151.421875,83.29166666666667,151.421875,87.45833333333333L151.421875,91.625" class="relation"/><path id="edge25" marker-end="url(#extensionEnd)" d="M110.96101210777627,133.25L102.86073925648022,137.41666666666666C94.76046640518418,141.58333333333334,78.5599207025921,149.91666666666666,70.45964785129604,158.25C62.359375,166.58333333333334,62.359375,174.91666666666666,62.359375,179.08333333333334L62.359375,183.25" class="relation"/><path id="edge26" marker-end="url(#extensionEnd)" d="M191.88273789222373,133.25L199.9830107435198,137.41666666666666C208.08328359481584,141.58333333333334,224.28382929740792,149.91666666666666,232.38410214870396,158.25C240.484375,166.58333333333334,240.484375,174.91666666666666,240.484375,179.08333333333334L240.484375,183.25" class="relation"/></svg>