<svg xmlns="http://www.w3.org/2000/svg" id="mermaid-1583960367631" width="384.266" height="498.344" viewBox="-10 -10 262.844 478.344"><style>#mermaid-1583960367631 .label,#mermaid-1583960367631 g.classGroup text{font-family:&apos;trebuchet ms&apos;,verdana,arial;font-family:var(--mermaid-font-family)}#mermaid-1583960367631 .label{color:#333}#mermaid-1583960367631 .label text{fill:#333}#mermaid-1583960367631 g.classGroup text{fill:#9370db;stroke:none;font-size:10px}#mermaid-1583960367631 g.classGroup text .title{font-weight:bolder}#mermaid-1583960367631 g.classGroup rect{fill:#ececff;stroke:#9370db}#mermaid-1583960367631 g.classGroup line{stroke:#9370db;stroke-width:1}#mermaid-1583960367631 .classLabel .box{stroke:none;stroke-width:0;fill:#ececff;opacity:.5}#mermaid-1583960367631 .classLabel .label{fill:#9370db;font-size:10px}#mermaid-1583960367631 .relation{stroke:#9370db;stroke-width:1;fill:none}#mermaid-1583960367631 #compositionEnd,#mermaid-1583960367631 #compositionStart{fill:#9370db;stroke:#9370db;stroke-width:1}#mermaid-1583960367631 #aggregationEnd,#mermaid-1583960367631 #aggregationStart{fill:#ececff;stroke:#9370db;stroke-width:1}#mermaid-1583960367631 #dependencyEnd,#mermaid-1583960367631 #dependencyStart,#mermaid-1583960367631 #extensionEnd,#mermaid-1583960367631 #extensionStart{fill:#9370db;stroke:#9370db;stroke-width:1}:root{--mermaid-font-family:&apos;&quot;trebuchet ms&quot;, verdana, arial&apos;;--mermaid-font-family:&quot;Comic Sans MS&quot;, &quot;Comic Sans&quot;, cursive;--mermaid-font-family:&quot;trebuchet ms&quot;, verdana, arial}</style><style>#mermaid-1583960367631{color:#000;font:16px &quot;trebuchet ms&quot;,verdana,arial}</style><defs><marker id="extensionStart" class="extension" markerHeight="240" markerWidth="190" orient="auto" refX="0" refY="7"><path d="M 1,7 L18,13 V 1 Z"/></marker></defs><defs><marker id="extensionEnd" markerHeight="28" markerWidth="20" orient="auto" refX="19" refY="7"><path d="M 1,1 V 13 L18,7 Z"/></marker></defs><defs><marker id="compositionStart" class="extension" markerHeight="240" markerWidth="190" orient="auto" refX="0" refY="7"><path d="M 18,7 L9,13 L1,7 L9,1 Z"/></marker></defs><defs><marker id="compositionEnd" markerHeight="28" markerWidth="20" orient="auto" refX="19" refY="7"><path d="M 18,7 L9,13 L1,7 L9,1 Z"/></marker></defs><defs><marker id="aggregationStart" class="extension" markerHeight="240" markerWidth="190" orient="auto" refX="0" refY="7"><path d="M 18,7 L9,13 L1,7 L9,1 Z"/></marker></defs><defs><marker id="aggregationEnd" markerHeight="28" markerWidth="20" orient="auto" refX="19" refY="7"><path d="M 18,7 L9,13 L1,7 L9,1 Z"/></marker></defs><defs><marker id="dependencyStart" class="extension" markerHeight="240" markerWidth="190" orient="auto" refX="0" refY="7"><path d="M 5,7 L9,13 L1,7 L9,1 Z"/></marker></defs><defs><marker id="dependencyEnd" markerHeight="28" markerWidth="20" orient="auto" refX="19" refY="7"><path d="M 18,7 L9,13 L14,7 L9,1 Z"/></marker></defs><g id="classid-OAuthPrompt-30" class="classGroup" transform="translate(69.71875,0 )"><rect width="117.75" height="53.641" x="0" y="0"/><text x="0" y="15"><tspan x="26.781" class="title">OAuthPrompt</tspan></text><line x1="0" x2="117.75" y1="22.016" y2="22.016"/><text x="5" y="32.016" fill="#fff" class="classText"><tspan x="5">- OAuthPromptSettings</tspan><tspan x="5" dy="10">- PromptValidator</tspan></text><line x1="0" x2="117.75" y1="49.031" y2="49.031"/></g><g id="classid-BotAdapter-31" class="classGroup" transform="translate(0,335.09375 )"><rect width="110.766" height="41.625" x="0" y="0"/><text x="0" y="15"><tspan x="5">«abstract»</tspan><tspan x="5" class="title" dy="10">BotAdapter</tspan></text><line x1="0" x2="110.766" y1="32.016" y2="32.016"/><line x1="0" x2="110.766" y1="37.016" y2="37.016"/></g><g id="classid-ExtendedUserTokenProvider-32" class="classGroup" transform="translate(56.7734375,103.640625 )"><rect width="143.641" height="99.828" x="0" y="0"/><text x="0" y="15"><tspan x="5" class="title">ExtendedUserTokenProvider</tspan></text><line x1="0" x2="143.641" y1="22.016" y2="22.016"/><line x1="0" x2="143.641" y1="27.016" y2="27.016"/><text x="5" y="42.016" fill="#fff" class="classText"><tspan x="5">getUserToken()</tspan><tspan x="5" dy="10">signOutUser()</tspan><tspan x="5" dy="10">getSignInLink()</tspan><tspan x="5" dy="10">getAadTokens()</tspan><tspan x="5" dy="10">getSignInResource()</tspan><tspan x="5" dy="10">exchangeToken()</tspan></text></g><g id="classid-BotFrameworkAdapter-33" class="classGroup" transform="translate(70.546875,253.46875 )"><rect width="116.094" height="31.625" x="0" y="0"/><text x="0" y="15"><tspan x="5" class="title">BotFrameworkAdapter</tspan></text><line x1="0" x2="116.094" y1="22.016" y2="22.016"/><line x1="0" x2="116.094" y1="27.016" y2="27.016"/></g><g id="classid-TokenApiClient-34" class="classGroup" transform="translate(160.765625,340.09375 )"><rect width="82.078" height="31.625" x="0" y="0"/><text x="0" y="15"><tspan x="5" class="title">TokenApiClient</tspan></text><line x1="0" x2="82.078" y1="22.016" y2="22.016"/><line x1="0" x2="82.078" y1="27.016" y2="27.016"/></g><g id="classid-TurnContext-35" class="classGroup" transform="translate(20.46875,426.71875 )"><rect width="69.828" height="31.625" x="0" y="0"/><text x="0" y="15"><tspan x="5" class="title">TurnContext</tspan></text><line x1="0" x2="69.828" y1="22.016" y2="22.016"/><line x1="0" x2="69.828" y1="27.016" y2="27.016"/></g><path id="edge14" marker-start="url(#aggregationStart)" d="M128.59375,53.640625L128.59375,57.807291666666664C128.59375,61.973958333333336,128.59375,70.30729166666667,128.59375,78.640625C128.59375,86.97395833333333,128.59375,95.30729166666667,128.59375,99.47395833333333L128.59375,103.640625" class="relation"/><g class="classLabel"><rect width="106.063" height="17.016" x="76.016" y="66.531" class="box"/><text x="128.594" y="78.641" fill="red" class="label" text-anchor="middle">uses as token provider</text></g><path id="edge15" marker-start="url(#extensionStart)" d="M128.59375,203.46875L128.59375,207.63541666666666C128.59375,211.80208333333334,128.59375,220.13541666666666,128.59375,228.46875C128.59375,236.80208333333334,128.59375,245.13541666666666,128.59375,249.30208333333334L128.59375,253.46875" class="relation"/><path id="edge16" marker-end="url(#dependencyEnd)" d="M156.95878397779478,285.09375L164.43310123149567,289.2604166666667C171.90741848519653,293.4270833333333,186.85605299259828,301.7604166666667,194.33037024629914,310.9270833333333C201.8046875,320.09375,201.8046875,330.09375,201.8046875,335.09375L201.8046875,340.09375" class="relation"/><g class="classLabel"><rect width="100.938" height="17.016" x="142.391" y="292.797" class="box"/><text x="192.483" y="304.897" fill="red" class="label" text-anchor="middle">creates to get tokens</text></g><path id="edge17" marker-end="url(#extensionEnd)" d="M100.2287160222052,285.09375L92.75439876850434,289.2604166666667C85.28008151480347,293.4270833333333,70.33144700740174,301.7604166666667,62.85712975370087,310.09375C55.3828125,318.4270833333333,55.3828125,326.7604166666667,55.3828125,330.9270833333333L55.3828125,335.09375" class="relation"/><g class="classLabel"><rect width="61.938" height="17.016" x="36.172" y="291.578" class="box"/><text x="66.888" y="303.68" fill="red" class="label" text-anchor="middle">derives from</text></g><path id="edge18" marker-end="url(#aggregationEnd)" d="M55.3828125,376.71875L55.3828125,380.8854166666667C55.3828125,385.0520833333333,55.3828125,393.3854166666667,55.3828125,401.71875C55.3828125,410.0520833333333,55.3828125,418.3854166666667,55.3828125,422.5520833333333L55.3828125,426.71875" class="relation"/><g class="classLabel"><rect width="73.344" height="17.016" x="19.266" y="389.609" class="box"/><text x="55.383" y="401.719" fill="red" class="label" text-anchor="middle">is a member of</text></g></svg>