<svg xmlns="http://www.w3.org/2000/svg" id="mermaid-1583960183227" width="837.875" height="500.359" viewBox="-10 -10 565.25 480.359"><style>#mermaid-1583960183227 .label,#mermaid-1583960183227 g.classGroup text{font-family:&apos;trebuchet ms&apos;,verdana,arial;font-family:var(--mermaid-font-family)}#mermaid-1583960183227 .label{color:#333}#mermaid-1583960183227 .label text{fill:#333}#mermaid-1583960183227 g.classGroup text{fill:#9370db;stroke:none;font-size:10px}#mermaid-1583960183227 g.classGroup text .title{font-weight:bolder}#mermaid-1583960183227 g.classGroup rect{fill:#ececff;stroke:#9370db}#mermaid-1583960183227 g.classGroup line{stroke:#9370db;stroke-width:1}#mermaid-1583960183227 .classLabel .box{stroke:none;stroke-width:0;fill:#ececff;opacity:.5}#mermaid-1583960183227 .classLabel .label{fill:#9370db;font-size:10px}#mermaid-1583960183227 .relation{stroke:#9370db;stroke-width:1;fill:none}#mermaid-1583960183227 #compositionEnd,#mermaid-1583960183227 #compositionStart{fill:#9370db;stroke:#9370db;stroke-width:1}#mermaid-1583960183227 #aggregationEnd,#mermaid-1583960183227 #aggregationStart{fill:#ececff;stroke:#9370db;stroke-width:1}#mermaid-1583960183227 #dependencyEnd,#mermaid-1583960183227 #dependencyStart,#mermaid-1583960183227 #extensionEnd,#mermaid-1583960183227 #extensionStart{fill:#9370db;stroke:#9370db;stroke-width:1}:root{--mermaid-font-family:&apos;&quot;trebuchet ms&quot;, verdana, arial&apos;;--mermaid-font-family:&quot;Comic Sans MS&quot;, &quot;Comic Sans&quot;, cursive;--mermaid-font-family:&quot;trebuchet ms&quot;, verdana, arial}</style><style>#mermaid-1583960183227{color:#000;font:16px &quot;trebuchet ms&quot;,verdana,arial}</style><defs><marker id="extensionStart" class="extension" markerHeight="240" markerWidth="190" orient="auto" refX="0" refY="7"><path d="M 1,7 L18,13 V 1 Z"/></marker></defs><defs><marker id="extensionEnd" markerHeight="28" markerWidth="20" orient="auto" refX="19" refY="7"><path d="M 1,1 V 13 L18,7 Z"/></marker></defs><defs><marker id="compositionStart" class="extension" markerHeight="240" markerWidth="190" orient="auto" refX="0" refY="7"><path d="M 18,7 L9,13 L1,7 L9,1 Z"/></marker></defs><defs><marker id="compositionEnd" markerHeight="28" markerWidth="20" orient="auto" refX="19" refY="7"><path d="M 18,7 L9,13 L1,7 L9,1 Z"/></marker></defs><defs><marker id="aggregationStart" class="extension" markerHeight="240" markerWidth="190" orient="auto" refX="0" refY="7"><path d="M 18,7 L9,13 L1,7 L9,1 Z"/></marker></defs><defs><marker id="aggregationEnd" markerHeight="28" markerWidth="20" orient="auto" refX="19" refY="7"><path d="M 18,7 L9,13 L1,7 L9,1 Z"/></marker></defs><defs><marker id="dependencyStart" class="extension" markerHeight="240" markerWidth="190" orient="auto" refX="0" refY="7"><path d="M 5,7 L9,13 L1,7 L9,1 Z"/></marker></defs><defs><marker id="dependencyEnd" markerHeight="28" markerWidth="20" orient="auto" refX="19" refY="7"><path d="M 18,7 L9,13 L14,7 L9,1 Z"/></marker></defs><g id="classid-OAuthClient-8" class="classGroup" transform="translate(174.640625,0 )"><rect width="117.75" height="53.641" x="0" y="0"/><text x="0" y="15"><tspan x="30.039" class="title">OAuthClient</tspan></text><line x1="0" x2="117.75" y1="22.016" y2="22.016"/><text x="5" y="32.016" fill="#fff" class="classText"><tspan x="5">- OAuthPromptSettings</tspan><tspan x="5" dy="10">- PromptValidator</tspan></text><line x1="0" x2="117.75" y1="49.031" y2="49.031"/></g><g id="classid-ServiceClient-9" class="classGroup" transform="translate(0,129.6484375 )"><rect width="120.453" height="41.625" x="0" y="0"/><text x="0" y="15"><tspan x="5">«abstract»</tspan><tspan x="5" class="title" dy="10">ServiceClient</tspan></text><line x1="0" x2="120.453" y1="32.016" y2="32.016"/><line x1="0" x2="120.453" y1="37.016" y2="37.016"/></g><g id="classid-IOAuthClient-10" class="classGroup" transform="translate(170.453125,103.640625 )"><rect width="126.125" height="93.641" x="0" y="0"/><text x="0" y="15"><tspan x="32.836" class="title">IOAuthClient</tspan></text><line x1="0" x2="126.125" y1="22.016" y2="22.016"/><text x="5" y="32.016" fill="#fff" class="classText"><tspan x="5">+ BaseUri</tspan><tspan x="5" dy="10">+ SerializationSettings</tspan><tspan x="5" dy="10">+ DeserializationSettings</tspan><tspan x="5" dy="10">+ Credentials</tspan><tspan x="5" dy="10">+ BotSignIn</tspan><tspan x="5" dy="10">+ UserToken</tspan></text><line x1="0" x2="126.125" y1="89.031" y2="89.031"/></g><g id="classid-IDisposable-11" class="classGroup" transform="translate(202.1171875,256.3828125 )"><rect width="62.797" height="31.625" x="0" y="0"/><text x="0" y="15"><tspan x="5" class="title">IDisposable</tspan></text><line x1="0" x2="62.797" y1="22.016" y2="22.016"/><line x1="0" x2="62.797" y1="27.016" y2="27.016"/></g><g id="classid-IUserToken-12" class="classGroup" transform="translate(346.578125,110.546875 )"><rect width="198.672" height="79.828" x="0" y="0"/><text x="0" y="15"><tspan x="73.328" class="title">IUserToken</tspan></text><line x1="0" x2="198.672" y1="22.016" y2="22.016"/><line x1="0" x2="198.672" y1="27.016" y2="27.016"/><text x="5" y="42.016" fill="#fff" class="classText"><tspan x="5">GetTokenWithHttpMessagesAsync()</tspan><tspan x="5" dy="10">GetAadTokensWithHttpMessagesAsync()</tspan><tspan x="5" dy="10">SignOutWithHttpMessagesAsync()</tspan><tspan x="5" dy="10">GetTokenStatusWithHttpMessagesAsync()</tspan></text></g><g id="classid-UserToken-13" class="classGroup" transform="translate(360.328125,247.28125 )"><rect width="171.172" height="49.828" x="0" y="0"/><text x="0" y="15"><tspan x="60.977" class="title">UserToken</tspan></text><line x1="0" x2="171.172" y1="22.016" y2="22.016"/><line x1="0" x2="171.172" y1="27.016" y2="27.016"/><text x="5" y="42.016" fill="#fff" class="classText"><tspan x="5">GetTokenWithHttpMessagesAsync()</tspan></text></g><g id="classid-HttpOperationResponseTokenResponse-14" class="classGroup" transform="translate(349.671875,347.109375 )"><rect width="192.484" height="31.625" x="0" y="0"/><text x="0" y="15"><tspan x="5" class="title">HttpOperationResponseTokenResponse</tspan></text><line x1="0" x2="192.484" y1="22.016" y2="22.016"/><line x1="0" x2="192.484" y1="27.016" y2="27.016"/></g><g id="classid-Token-15" class="classGroup" transform="translate(426.4453125,428.734375 )"><rect width="38.938" height="31.625" x="0" y="0"/><text x="0" y="15"><tspan x="5" class="title">Token</tspan></text><line x1="0" x2="38.938" y1="22.016" y2="22.016"/><line x1="0" x2="38.938" y1="27.016" y2="27.016"/></g><path id="edge0" marker-end="url(#extensionEnd)" d="M174.640625,44.42627593717596L155.57161458333334,50.12866744764663C136.50260416666666,55.8310589581173,98.36458333333333,67.23584197905865,79.29557291666667,81.43953557286265C60.2265625,95.64322916666667,60.2265625,112.64583333333333,60.2265625,121.14713541666667L60.2265625,129.6484375" class="relation"/><g class="classLabel"><rect width="61.938" height="17.016" x="62.281" y="56.734" class="box"/><text x="92.999" y="68.84" fill="red" class="label" text-anchor="middle">derives from</text></g><path id="edge1" marker-end="url(#extensionEnd)" d="M233.515625,53.640625L233.515625,57.807291666666664C233.515625,61.973958333333336,233.515625,70.30729166666667,233.515625,78.640625C233.515625,86.97395833333333,233.515625,95.30729166666667,233.515625,99.47395833333333L233.515625,103.640625" class="relation"/><g class="classLabel"><rect width="58.125" height="17.016" x="204.828" y="66.531" class="box"/><text x="233.516" y="78.641" fill="red" class="label" text-anchor="middle">implements</text></g><path id="edge2" marker-end="url(#extensionEnd)" d="M233.515625,197.28125L233.515625,201.44791666666666C233.515625,205.61458333333334,233.515625,213.94791666666666,233.515625,223.79817708333334C233.515625,233.6484375,233.515625,245.015625,233.515625,250.69921875L233.515625,256.3828125" class="relation"/><path id="edge3" marker-start="url(#compositionStart)" d="M292.390625,41.18445253016147L317.9778645833333,47.42714794180123C343.5651041666667,53.66984335344099,394.7395833333333,66.1552341767205,420.3268229166667,77.71563792169358C445.9140625,89.27604166666667,445.9140625,99.91145833333333,445.9140625,105.22916666666667L445.9140625,110.546875" class="relation"/><g class="classLabel"><rect width="82.281" height="17.016" x="343.578" y="51.594" class="box"/><text x="384.651" y="63.694" fill="red" class="label" text-anchor="middle">uses to get token</text></g><path id="edge4" marker-start="url(#extensionStart)" d="M445.9140625,190.375L445.9140625,195.69270833333334C445.9140625,201.01041666666666,445.9140625,211.64583333333334,445.9140625,221.13020833333334C445.9140625,230.61458333333334,445.9140625,238.94791666666666,445.9140625,243.11458333333334L445.9140625,247.28125" class="relation"/><g class="classLabel"><rect width="146.641" height="17.016" x="372.656" y="206.719" class="box"/><text x="445.914" y="218.828" fill="red" class="label" text-anchor="middle">performs token operations with</text></g><path id="edge5" marker-end="url(#dependencyEnd)" d="M445.9140625,297.109375L445.9140625,301.2760416666667C445.9140625,305.4427083333333,445.9140625,313.7760416666667,445.9140625,322.109375C445.9140625,330.4427083333333,445.9140625,338.7760416666667,445.9140625,342.9427083333333L445.9140625,347.109375" class="relation"/><g class="classLabel"><rect width="77.109" height="17.016" x="407.906" y="310" class="box"/><text x="445.914" y="322.109" fill="red" class="label" text-anchor="middle">receives Task of</text></g><path id="edge6" marker-start="url(#compositionStart)" d="M445.9140625,378.734375L445.9140625,382.9010416666667C445.9140625,387.0677083333333,445.9140625,395.4010416666667,445.9140625,403.734375C445.9140625,412.0677083333333,445.9140625,420.4010416666667,445.9140625,424.5677083333333L445.9140625,428.734375" class="relation"/><g class="classLabel"><rect width="58.375" height="17.016" x="416.5" y="391.625" class="box"/><text x="445.914" y="403.734" fill="red" class="label" text-anchor="middle">which has a</text></g></svg>