<svg xmlns="http://www.w3.org/2000/svg" id="mermaid-1583960923550" width="502.021" height="452.156" viewBox="-10 -10 341.348 432.156"><style>#mermaid-1583960923550 .label,#mermaid-1583960923550 g.classGroup text{font-family:&apos;trebuchet ms&apos;,verdana,arial;font-family:var(--mermaid-font-family)}#mermaid-1583960923550 .label{color:#333}#mermaid-1583960923550 .label text{fill:#333}#mermaid-1583960923550 g.classGroup text{fill:#9370db;stroke:none;font-size:10px}#mermaid-1583960923550 g.classGroup text .title{font-weight:bolder}#mermaid-1583960923550 g.classGroup rect{fill:#ececff;stroke:#9370db}#mermaid-1583960923550 g.classGroup line{stroke:#9370db;stroke-width:1}#mermaid-1583960923550 .classLabel .box{stroke:none;stroke-width:0;fill:#ececff;opacity:.5}#mermaid-1583960923550 .classLabel .label{fill:#9370db;font-size:10px}#mermaid-1583960923550 .relation{stroke:#9370db;stroke-width:1;fill:none}#mermaid-1583960923550 #compositionEnd,#mermaid-1583960923550 #compositionStart{fill:#9370db;stroke:#9370db;stroke-width:1}#mermaid-1583960923550 #aggregationEnd,#mermaid-1583960923550 #aggregationStart{fill:#ececff;stroke:#9370db;stroke-width:1}#mermaid-1583960923550 #dependencyEnd,#mermaid-1583960923550 #dependencyStart,#mermaid-1583960923550 #extensionEnd,#mermaid-1583960923550 #extensionStart{fill:#9370db;stroke:#9370db;stroke-width:1}:root{--mermaid-font-family:&apos;&quot;trebuchet ms&quot;, verdana, arial&apos;;--mermaid-font-family:&quot;Comic Sans MS&quot;, &quot;Comic Sans&quot;, cursive;--mermaid-font-family:&quot;trebuchet ms&quot;, verdana, arial}</style><style>#mermaid-1583960923550{color:#000;font:16px &quot;trebuchet ms&quot;,verdana,arial}</style><defs><marker id="extensionStart" class="extension" markerHeight="240" markerWidth="190" orient="auto" refX="0" refY="7"><path d="M 1,7 L18,13 V 1 Z"/></marker></defs><defs><marker id="extensionEnd" markerHeight="28" markerWidth="20" orient="auto" refX="19" refY="7"><path d="M 1,1 V 13 L18,7 Z"/></marker></defs><defs><marker id="compositionStart" class="extension" markerHeight="240" markerWidth="190" orient="auto" refX="0" refY="7"><path d="M 18,7 L9,13 L1,7 L9,1 Z"/></marker></defs><defs><marker id="compositionEnd" markerHeight="28" markerWidth="20" orient="auto" refX="19" refY="7"><path d="M 18,7 L9,13 L1,7 L9,1 Z"/></marker></defs><defs><marker id="aggregationStart" class="extension" markerHeight="240" markerWidth="190" orient="auto" refX="0" refY="7"><path d="M 18,7 L9,13 L1,7 L9,1 Z"/></marker></defs><defs><marker id="aggregationEnd" markerHeight="28" markerWidth="20" orient="auto" refX="19" refY="7"><path d="M 18,7 L9,13 L1,7 L9,1 Z"/></marker></defs><defs><marker id="dependencyStart" class="extension" markerHeight="240" markerWidth="190" orient="auto" refX="0" refY="7"><path d="M 5,7 L9,13 L1,7 L9,1 Z"/></marker></defs><defs><marker id="dependencyEnd" markerHeight="28" markerWidth="20" orient="auto" refX="19" refY="7"><path d="M 18,7 L9,13 L14,7 L9,1 Z"/></marker></defs><g id="classid-TokenApiClient-62" class="classGroup" transform="translate(98.46484375,0 )"><rect width="82.078" height="53.641" x="0" y="0"/><text x="0" y="15"><tspan x="5" class="title">TokenApiClient</tspan></text><line x1="0" x2="82.078" y1="22.016" y2="22.016"/><text x="5" y="32.016" fill="#fff" class="classText"><tspan x="5">+ botSignIn</tspan><tspan x="5" dy="10">+ userToken</tspan></text><line x1="0" x2="82.078" y1="49.031" y2="49.031"/></g><g id="classid-TokenApiClientContext-63" class="classGroup" transform="translate(0,103.640625 )"><rect width="118.953" height="63.641" x="0" y="0"/><text x="0" y="15"><tspan x="5" class="title">TokenApiClientContext</tspan></text><line x1="0" x2="118.953" y1="22.016" y2="22.016"/><text x="5" y="32.016" fill="#fff" class="classText"><tspan x="5">+ baseUri</tspan><tspan x="5" dy="10">+ requestContentType</tspan><tspan x="5" dy="10">+ credentials</tspan></text><line x1="0" x2="118.953" y1="59.031" y2="59.031"/></g><g id="classid-ServiceClient-64" class="classGroup" transform="translate(22.9375,217.28125 )"><rect width="73.078" height="31.625" x="0" y="0"/><text x="0" y="15"><tspan x="5" class="title">ServiceClient</tspan></text><line x1="0" x2="73.078" y1="22.016" y2="22.016"/><line x1="0" x2="73.078" y1="27.016" y2="27.016"/></g><g id="classid-UserToken-65" class="classGroup" transform="translate(188.03125,110.546875 )"><rect width="63" height="49.828" x="0" y="0"/><text x="0" y="15"><tspan x="6.891" class="title">UserToken</tspan></text><line x1="0" x2="63" y1="22.016" y2="22.016"/><line x1="0" x2="63" y1="27.016" y2="27.016"/><text x="5" y="42.016" fill="#fff" class="classText"><tspan x="5">getToken()</tspan></text></g><g id="classid-UserTokenGetTokenResponse-66" class="classGroup" transform="translate(146.015625,217.28125 )"><rect width="147.031" height="31.625" x="0" y="0"/><text x="0" y="15"><tspan x="5" class="title">UserTokenGetTokenResponse</tspan></text><line x1="0" x2="147.031" y1="22.016" y2="22.016"/><line x1="0" x2="147.031" y1="27.016" y2="27.016"/></g><g id="classid-TokenResponse-67" class="classGroup" transform="translate(113.80078125,298.90625 )"><rect width="82.688" height="31.625" x="0" y="0"/><text x="0" y="15"><tspan x="5" class="title">TokenResponse</tspan></text><line x1="0" x2="82.688" y1="22.016" y2="22.016"/><line x1="0" x2="82.688" y1="27.016" y2="27.016"/></g><g id="classid-HttpResponse-68" class="classGroup" transform="translate(246.48828125,298.90625 )"><rect width="74.859" height="31.625" x="0" y="0"/><text x="0" y="15"><tspan x="5" class="title">HttpResponse</tspan></text><line x1="0" x2="74.859" y1="22.016" y2="22.016"/><line x1="0" x2="74.859" y1="27.016" y2="27.016"/></g><g id="classid-token-69" class="classGroup" transform="translate(136.51953125,380.53125 )"><rect width="37.25" height="31.625" x="0" y="0"/><text x="0" y="15"><tspan x="5" class="title">token</tspan></text><line x1="0" x2="37.25" y1="22.016" y2="22.016"/><line x1="0" x2="37.25" y1="27.016" y2="27.016"/></g><path id="edge30" marker-end="url(#extensionEnd)" d="M98.46484375,53.39444258859277L91.966796875,57.60213965716064C85.46875,61.80983672572851,72.47265625,70.22523086286425,65.974609375,78.59959459809879C59.4765625,86.97395833333333,59.4765625,95.30729166666667,59.4765625,99.47395833333333L59.4765625,103.640625" class="relation"/><g class="classLabel"><rect width="40.734" height="17.016" x="48.484" y="60.703" class="box"/><text x="68.478" y="72.812" fill="red" class="label" text-anchor="middle">extends</text></g><path id="edge31" marker-end="url(#extensionEnd)" d="M59.4765625,167.28125L59.4765625,171.44791666666666C59.4765625,175.61458333333334,59.4765625,183.94791666666666,59.4765625,192.28125C59.4765625,200.61458333333334,59.4765625,208.94791666666666,59.4765625,213.11458333333334L59.4765625,217.28125" class="relation"/><g class="classLabel"><rect width="40.734" height="17.016" x="39.484" y="180.172" class="box"/><text x="59.477" y="192.281" fill="red" class="label" text-anchor="middle">extends</text></g><path id="edge32" marker-start="url(#compositionStart)" d="M180.54296875,53.39444258859277L187.041015625,57.60213965716064C193.5390625,61.80983672572851,206.53515625,70.22523086286425,213.033203125,79.75063626476546C219.53125,89.27604166666667,219.53125,99.91145833333333,219.53125,105.22916666666667L219.53125,110.546875" class="relation"/><g class="classLabel"><rect width="114.406" height="17.016" x="156.297" y="62.578" class="box"/><text x="213.428" y="74.689" fill="red" class="label" text-anchor="middle">performs token ops with</text></g><path id="edge33" marker-end="url(#dependencyEnd)" d="M219.53125,160.375L219.53125,165.69270833333334C219.53125,171.01041666666666,219.53125,181.64583333333334,219.53125,191.13020833333334C219.53125,200.61458333333334,219.53125,208.94791666666666,219.53125,213.11458333333334L219.53125,217.28125" class="relation"/><g class="classLabel"><rect width="93.688" height="17.016" x="173.234" y="176.719" class="box"/><text x="219.531" y="188.828" fill="red" class="label" text-anchor="middle">receives promise of</text></g><path id="edge34" marker-start="url(#compositionStart)" d="M194.5850940371363,248.90625L188.0116669059469,253.07291666666666C181.43823977475753,257.2395833333333,168.29138551237875,265.5729166666667,161.7179583811894,273.90625C155.14453125,282.2395833333333,155.14453125,290.5729166666667,155.14453125,294.7395833333333L155.14453125,298.90625" class="relation"/><g class="classLabel"><rect width="62.813" height="17.016" x="133.453" y="255.984" class="box"/><text x="164.307" y="268.098" fill="red" class="label" text-anchor="middle">composed of</text></g><path id="edge35" marker-start="url(#compositionStart)" d="M244.4774059628637,248.90625L251.0508330940531,253.07291666666666C257.6242602252425,257.2395833333333,270.7711144876212,265.5729166666667,277.34454161881064,273.90625C283.91796875,282.2395833333333,283.91796875,290.5729166666667,283.91796875,294.7395833333333L283.91796875,298.90625" class="relation"/><path id="edge36" marker-start="url(#compositionStart)" d="M155.14453125,330.53125L155.14453125,334.6979166666667C155.14453125,338.8645833333333,155.14453125,347.1979166666667,155.14453125,355.53125C155.14453125,363.8645833333333,155.14453125,372.1979166666667,155.14453125,376.3645833333333L155.14453125,380.53125" class="relation"/><g class="classLabel"><rect width="58.375" height="17.016" x="125.734" y="343.422" class="box"/><text x="155.145" y="355.531" fill="red" class="label" text-anchor="middle">which has a</text></g></svg>