<svg xmlns="http://www.w3.org/2000/svg" id="mermaid-1582929768331" width="100%" height="100%" viewBox="-50 -10 850 474.047" style="max-width:850px"><style>#mermaid-1582929768331 .actor{stroke:#ccf;fill:#ececff}#mermaid-1582929768331 text.actor{fill:#000;stroke:none}#mermaid-1582929768331 .actor-line{stroke:gray}#mermaid-1582929768331 .messageLine0,#mermaid-1582929768331 .messageLine1{stroke-width:1.5;stroke-dasharray:&apos;2 2&apos;;stroke:#333}#mermaid-1582929768331 #arrowhead,#mermaid-1582929768331 #sequencenumber{fill:#333}#mermaid-1582929768331 #crosshead path{fill:#333!important;stroke:#333!important}#mermaid-1582929768331 .messageText{fill:#333;stroke:none}#mermaid-1582929768331 .note{stroke:#aa3;fill:#fff5ad}#mermaid-1582929768331 .noteText{fill:#000;stroke:none;font-family:&apos;trebuchet ms&apos;,verdana,arial;font-family:var(--mermaid-font-family);font-size:14px}:root{--mermaid-font-family:&apos;&quot;trebuchet ms&quot;, verdana, arial&apos;;--mermaid-font-family:&quot;Comic Sans MS&quot;, &quot;Comic Sans&quot;, cursive;--mermaid-font-family:&quot;trebuchet ms&quot;, verdana, arial}</style><style>#mermaid-1582929768331{color:#000;font:16px &quot;trebuchet ms&quot;,verdana,arial}</style><g><line id="actor0" x1="75" x2="75" y1="5" y2="463.047" stroke="#999" stroke-width=".5" class="actor-line"/><rect width="150" height="65" x="0" y="0" fill="#eaeaea" stroke="#666" class="actor" rx="3" ry="3"/><text x="75" y="32.5" alignment-baseline="central" class="actor" dominant-baseline="central" style="text-anchor:middle;font-size:14px"><tspan x="75" dy="0">User</tspan></text></g><g><line id="actor1" x1="275" x2="275" y1="5" y2="463.047" stroke="#999" stroke-width=".5" class="actor-line"/><rect width="150" height="65" x="200" y="0" fill="#eaeaea" stroke="#666" class="actor" rx="3" ry="3"/><text x="275" y="32.5" alignment-baseline="central" class="actor" dominant-baseline="central" style="text-anchor:middle;font-size:14px"><tspan x="275" dy="0">Bot</tspan></text></g><g><line id="actor2" x1="475" x2="475" y1="5" y2="463.047" stroke="#999" stroke-width=".5" class="actor-line"/><rect width="150" height="65" x="400" y="0" fill="#eaeaea" stroke="#666" class="actor" rx="3" ry="3"/><text x="475" y="32.5" alignment-baseline="central" class="actor" dominant-baseline="central" style="text-anchor:middle;font-size:14px"><tspan x="475" dy="0">Azure</tspan></text></g><g><line id="actor3" x1="675" x2="675" y1="5" y2="463.047" stroke="#999" stroke-width=".5" class="actor-line"/><rect width="150" height="65" x="600" y="0" fill="#eaeaea" stroke="#666" class="actor" rx="3" ry="3"/><text x="675" y="32.5" alignment-baseline="central" class="actor" dominant-baseline="central" style="text-anchor:middle;font-size:14px"><tspan x="675" dy="0">Protected Resource</tspan></text></g><defs><marker id="arrowhead" markerHeight="4" markerWidth="6" orient="auto" refX="5" refY="2"><path d="M 0,0 V 4 L6,2 Z"/></marker></defs><defs><marker id="crosshead" markerHeight="8" markerWidth="15" orient="auto" refX="16" refY="4"><path fill="#000" stroke="#000" stroke-width="1" d="M 9,2 V 6 L16,4 Z" style="stroke-dasharray:0,0"/><path fill="none" stroke="#000" stroke-width="1" d="M 0,1 L 6,7 M 6,1 L 0,7" style="stroke-dasharray:0,0"/></marker></defs><defs><marker id="sequencenumber" markerHeight="40" markerWidth="60" orient="auto" refX="15" refY="15"><circle cx="15" cy="15" r="6"/></marker></defs><g><rect width="150" height="36.016" x="400" y="75" fill="#EDF2AE" stroke="#666" class="note" rx="0" ry="0"/><text x="396" y="99" class="noteText"><tspan x="416">Azure AD</tspan></text></g><g><rect width="150" height="36.016" x="400" y="121.016" fill="#EDF2AE" stroke="#666" class="note" rx="0" ry="0"/><text x="396" y="145.016" class="noteText"><tspan x="416">BF Token Service</tspan></text></g><g><rect width="150" height="36.016" x="400" y="167.031" fill="#EDF2AE" stroke="#666" class="note" rx="0" ry="0"/><text x="396" y="191.031" class="noteText"><tspan x="416">Secure Token Store</tspan></text></g><g><text x="175" y="231.047" class="messageText" style="text-anchor:middle">Send an email</text><line x1="75" x2="275" y1="238.047" y2="238.047" stroke="#000" stroke-width="2" marker-end="url(#arrowhead)" class="messageLine0" style="fill:none"/></g><g><text x="175" y="266.047" class="messageText" style="text-anchor:middle">Bot requests authorization * 1</text><line x1="275" x2="75" y1="273.047" y2="273.047" stroke="#000" stroke-width="2" marker-end="url(#arrowhead)" class="messageLine1" style="stroke-dasharray:3,3;fill:none"/></g><g><text x="275" y="301.047" class="messageText" style="text-anchor:middle">User authorizes Bot at Azure * 2</text><line x1="75" x2="475" y1="308.047" y2="308.047" stroke="#000" stroke-width="2" marker-end="url(#arrowhead)" class="messageLine0" style="fill:none"/></g><g><text x="375" y="336.047" class="messageText" style="text-anchor:middle">Access Token</text><line x1="475" x2="275" y1="343.047" y2="343.047" stroke="#000" stroke-width="2" marker-end="url(#arrowhead)" class="messageLine1" style="stroke-dasharray:3,3;fill:none"/></g><g><text x="475" y="371.047" class="messageText" style="text-anchor:middle">Bot calls API at Protected Resource to send an email on the User&apos;s behalf</text><line x1="275" x2="675" y1="378.047" y2="378.047" stroke="#000" stroke-width="2" marker-end="url(#arrowhead)" class="messageLine0" style="fill:none"/></g><g><rect width="150" height="65" x="0" y="398.047" fill="#eaeaea" stroke="#666" class="actor" rx="3" ry="3"/><text x="75" y="430.547" alignment-baseline="central" class="actor" dominant-baseline="central" style="text-anchor:middle;font-size:14px"><tspan x="75" dy="0">User</tspan></text></g><g><rect width="150" height="65" x="200" y="398.047" fill="#eaeaea" stroke="#666" class="actor" rx="3" ry="3"/><text x="275" y="430.547" alignment-baseline="central" class="actor" dominant-baseline="central" style="text-anchor:middle;font-size:14px"><tspan x="275" dy="0">Bot</tspan></text></g><g><rect width="150" height="65" x="400" y="398.047" fill="#eaeaea" stroke="#666" class="actor" rx="3" ry="3"/><text x="475" y="430.547" alignment-baseline="central" class="actor" dominant-baseline="central" style="text-anchor:middle;font-size:14px"><tspan x="475" dy="0">Azure</tspan></text></g><g><rect width="150" height="65" x="600" y="398.047" fill="#eaeaea" stroke="#666" class="actor" rx="3" ry="3"/><text x="675" y="430.547" alignment-baseline="central" class="actor" dominant-baseline="central" style="text-anchor:middle;font-size:14px"><tspan x="675" dy="0">Protected Resource</tspan></text></g></svg>